<svg width="20" height="22" viewBox="0 0 20 22" fill="none" xmlns="http://www.w3.org/2000/svg">
<mask id="path-1-inside-1_1490_1190" fill="white">
<path d="M0 0.5L5.05494 21.7088L20 8.85165L0 0.5Z"/>
</mask>
<path d="M0 0.5L5.05494 21.7088L20 8.85165L0 0.5Z" fill="#2051FF"/>
<path d="M5.05494 21.7088L0.191184 22.868L2.09403 30.8517L8.31578 25.4992L5.05494 21.7088ZM0 0.5L1.92668 -4.11388L-7.14235 -7.90095L-4.86376 1.65924L0 0.5ZM20 8.85165L23.2608 12.642L29.4016 7.35916L21.9267 4.23777L20 8.85165ZM9.91871 20.5496L4.86376 -0.659238L-4.86376 1.65924L0.191184 22.868L9.91871 20.5496ZM-1.92668 5.11388L18.0733 13.4655L21.9267 4.23777L1.92668 -4.11388L-1.92668 5.11388ZM16.7392 5.06127L1.79411 17.9184L8.31578 25.4992L23.2608 12.642L16.7392 5.06127Z" fill="#2051FF" mask="url(#path-1-inside-1_1490_1190)"/>
</svg>
