<svg width="240" height="141" viewBox="0 0 240 141" fill="none" xmlns="http://www.w3.org/2000/svg">
<rect width="240" height="141" rx="10" fill="#EC5C28"/>
<mask id="path-2-outside-1_1702_1106" maskUnits="userSpaceOnUse" x="26.2476" y="27.9746" width="123" height="90" fill="black">
<rect fill="white" x="26.2476" y="27.9746" width="123" height="90"/>
<path d="M27.9751 77.1646L27.2476 75.2221C27.7626 75.0921 28.1376 74.8971 28.3726 74.6371C28.6076 74.3771 28.7551 74.0246 28.8151 73.5796C28.8801 73.1296 28.9126 72.5571 28.9126 71.8621V69.4246H35.4151V76.9996H33.2251V71.1796H30.9151V71.8621C30.9151 72.6421 30.8701 73.3321 30.7801 73.9321C30.6951 74.5321 30.5451 75.0496 30.3301 75.4846C30.1151 75.9146 29.8176 76.2671 29.4376 76.5421C29.0576 76.8171 28.5701 77.0246 27.9751 77.1646Z"/>
<path d="M40.8051 77.2246C39.9901 77.2246 39.2676 77.0421 38.6376 76.6771C38.0076 76.3121 37.5126 75.8271 37.1526 75.2221C36.7976 74.6121 36.6201 73.9421 36.6201 73.2121C36.6201 72.6771 36.7226 72.1696 36.9276 71.6896C37.1326 71.2046 37.4226 70.7771 37.7976 70.4071C38.1726 70.0321 38.6151 69.7371 39.1251 69.5221C39.6351 69.3071 40.1951 69.1996 40.8051 69.1996C41.6201 69.1996 42.3401 69.3821 42.9651 69.7471C43.5951 70.1121 44.0876 70.5996 44.4426 71.2096C44.8026 71.8146 44.9826 72.4821 44.9826 73.2121C44.9826 73.7421 44.8801 74.2496 44.6751 74.7346C44.4701 75.2196 44.1801 75.6496 43.8051 76.0246C43.4351 76.3946 42.9951 76.6871 42.4851 76.9021C41.9751 77.1171 41.4151 77.2246 40.8051 77.2246ZM40.8051 75.3271C41.1901 75.3271 41.5351 75.2421 41.8401 75.0721C42.1451 74.8971 42.3851 74.6521 42.5601 74.3371C42.7351 74.0171 42.8226 73.6421 42.8226 73.2121C42.8226 72.7771 42.7351 72.4021 42.5601 72.0871C42.3901 71.7721 42.1526 71.5296 41.8476 71.3596C41.5426 71.1846 41.1951 71.0971 40.8051 71.0971C40.4151 71.0971 40.0651 71.1846 39.7551 71.3596C39.4501 71.5296 39.2101 71.7721 39.0351 72.0871C38.8651 72.4021 38.7801 72.7771 38.7801 73.2121C38.7801 73.6471 38.8676 74.0221 39.0426 74.3371C39.2176 74.6521 39.4576 74.8971 39.7626 75.0721C40.0676 75.2421 40.4151 75.3271 40.8051 75.3271Z"/>
<path d="M46.1858 76.9996V69.4246H51.3158V71.1796H48.3758V76.9996H46.1858Z"/>
<path d="M55.9815 77.2246C55.1665 77.2246 54.444 77.0421 53.814 76.6771C53.184 76.3121 52.689 75.8271 52.329 75.2221C51.974 74.6121 51.7965 73.9421 51.7965 73.2121C51.7965 72.6771 51.899 72.1696 52.104 71.6896C52.309 71.2046 52.599 70.7771 52.974 70.4071C53.349 70.0321 53.7915 69.7371 54.3015 69.5221C54.8115 69.3071 55.3715 69.1996 55.9815 69.1996C56.7965 69.1996 57.5165 69.3821 58.1415 69.7471C58.7715 70.1121 59.264 70.5996 59.619 71.2096C59.979 71.8146 60.159 72.4821 60.159 73.2121C60.159 73.7421 60.0565 74.2496 59.8515 74.7346C59.6465 75.2196 59.3565 75.6496 58.9815 76.0246C58.6115 76.3946 58.1715 76.6871 57.6615 76.9021C57.1515 77.1171 56.5915 77.2246 55.9815 77.2246ZM55.9815 75.3271C56.3665 75.3271 56.7115 75.2421 57.0165 75.0721C57.3215 74.8971 57.5615 74.6521 57.7365 74.3371C57.9115 74.0171 57.999 73.6421 57.999 73.2121C57.999 72.7771 57.9115 72.4021 57.7365 72.0871C57.5665 71.7721 57.329 71.5296 57.024 71.3596C56.719 71.1846 56.3715 71.0971 55.9815 71.0971C55.5915 71.0971 55.2415 71.1846 54.9315 71.3596C54.6265 71.5296 54.3865 71.7721 54.2115 72.0871C54.0415 72.4021 53.9565 72.7771 53.9565 73.2121C53.9565 73.6471 54.044 74.0221 54.219 74.3371C54.394 74.6521 54.634 74.8971 54.939 75.0721C55.244 75.2421 55.5915 75.3271 55.9815 75.3271Z"/>
<path d="M62.9296 76.9996V71.1796H60.6421V69.4246H67.3996V71.1796H65.1196V76.9996H62.9296Z"/>
<path d="M68.5035 76.9996V69.4246H70.596V73.8946L74.1435 69.4246H76.0935V76.9996H73.9935V72.4696L70.4385 76.9996H68.5035Z"/>
<path d="M77.9301 76.9996V69.4246H85.4976V76.9996H83.3076V71.1796H80.1201V76.9996H77.9301Z"/>
<path d="M31.8091 99.1946C31.1807 99.1946 30.6174 99.0451 30.1191 98.7461C29.6251 98.4428 29.2351 98.0398 28.9491 97.5371C28.6631 97.0344 28.5201 96.4819 28.5201 95.8796C28.5201 95.4289 28.6024 95.0043 28.7671 94.6056C28.9317 94.2026 29.1614 93.8494 29.4561 93.5461C29.7551 93.2384 30.1039 92.9979 30.5026 92.8246C30.9012 92.6513 31.3367 92.5646 31.8091 92.5646C32.4374 92.5646 32.9986 92.7163 33.4926 93.0196C33.9909 93.3186 34.3831 93.7194 34.6691 94.2221C34.9551 94.7248 35.0981 95.2773 35.0981 95.8796C35.0981 96.3303 35.0157 96.7571 34.8511 97.1601C34.6864 97.5588 34.4567 97.9119 34.1621 98.2196C33.8674 98.5229 33.5186 98.7613 33.1156 98.9346C32.7169 99.1079 32.2814 99.1946 31.8091 99.1946ZM31.8091 98.4926C32.2987 98.4926 32.7321 98.3864 33.1091 98.1741C33.4861 97.9574 33.7807 97.6541 33.9931 97.2641C34.2097 96.8741 34.3181 96.4126 34.3181 95.8796C34.3181 95.3466 34.2097 94.8851 33.9931 94.4951C33.7807 94.1008 33.4861 93.7974 33.1091 93.5851C32.7321 93.3728 32.2987 93.2666 31.8091 93.2666C31.3194 93.2666 30.8861 93.3728 30.5091 93.5851C30.1321 93.7974 29.8352 94.1008 29.6186 94.4951C29.4062 94.8851 29.3001 95.3466 29.3001 95.8796C29.3001 96.4126 29.4062 96.8741 29.6186 97.2641C29.8352 97.6541 30.1321 97.9574 30.5091 98.1741C30.8861 98.3864 31.3194 98.4926 31.8091 98.4926Z"/>
<path d="M38.0222 98.9996V93.4356H35.6952V92.7596H41.0772V93.4356H38.7502V98.9996H38.0222Z"/>
<path d="M42.2579 101.73V92.7596H42.9859V93.8126C43.2589 93.4529 43.6012 93.1561 44.0129 92.9221C44.4246 92.6838 44.9619 92.5646 45.6249 92.5646C46.2532 92.5646 46.8036 92.7163 47.2759 93.0196C47.7526 93.3186 48.1231 93.7194 48.3874 94.2221C48.6517 94.7248 48.7839 95.2773 48.7839 95.8796C48.7839 96.3303 48.7081 96.7571 48.5564 97.1601C48.4047 97.5588 48.1881 97.9119 47.9064 98.2196C47.6291 98.5229 47.2976 98.7613 46.9119 98.9346C46.5262 99.1079 46.0972 99.1946 45.6249 99.1946C45.0096 99.1946 44.4831 99.0754 44.0454 98.8371C43.6121 98.5988 43.2589 98.2889 42.9859 97.9076V101.73H42.2579ZM45.4949 98.4926C45.9846 98.4926 46.4179 98.3864 46.7949 98.1741C47.1719 97.9574 47.4666 97.6541 47.6789 97.2641C47.8956 96.8741 48.0039 96.4126 48.0039 95.8796C48.0039 95.3466 47.8956 94.8851 47.6789 94.4951C47.4666 94.1008 47.1719 93.7974 46.7949 93.5851C46.4179 93.3728 45.9846 93.2666 45.4949 93.2666C45.0052 93.2666 44.5719 93.3728 44.1949 93.5851C43.8179 93.7974 43.5211 94.1008 43.3044 94.4951C43.0921 94.8851 42.9859 95.3466 42.9859 95.8796C42.9859 96.4126 43.0921 96.8741 43.3044 97.2641C43.5211 97.6541 43.8179 97.9574 44.1949 98.1741C44.5719 98.3864 45.0052 98.4926 45.4949 98.4926Z"/>
<path d="M50.1483 98.9996V92.7596H50.8763V97.8036L55.0103 92.7596H55.5953V98.9996H54.8673V93.9036L50.6943 98.9996H50.1483Z"/>
<path d="M60.2996 99.1946C59.6452 99.1946 59.0667 99.0516 58.5641 98.7656C58.0614 98.4753 57.6671 98.0809 57.3811 97.5826C57.0994 97.0843 56.9586 96.5166 56.9586 95.8796C56.9586 95.3943 57.0431 94.9501 57.2121 94.5471C57.3811 94.1441 57.6194 93.7953 57.9271 93.5006C58.2391 93.2016 58.6052 92.9719 59.0256 92.8116C59.4459 92.6469 59.9052 92.5646 60.4036 92.5646C60.7762 92.5646 61.1186 92.6123 61.4306 92.7076C61.7426 92.7986 62.0372 92.9459 62.3146 93.1496L61.8726 93.7476C61.6862 93.5916 61.4609 93.4724 61.1966 93.3901C60.9322 93.3078 60.6506 93.2666 60.3516 93.2666C59.8186 93.2666 59.3571 93.3706 58.9671 93.5786C58.5771 93.7823 58.2737 94.0791 58.0571 94.4691C57.8447 94.8548 57.7386 95.3206 57.7386 95.8666C57.7386 96.6856 57.9726 97.3291 58.4406 97.7971C58.9086 98.2608 59.5412 98.4926 60.3386 98.4926C60.6766 98.4926 60.9907 98.4319 61.2811 98.3106C61.5757 98.1893 61.8032 98.0419 61.9636 97.8686L62.4576 98.4276C62.1412 98.6659 61.8032 98.8544 61.4436 98.9931C61.0839 99.1274 60.7026 99.1946 60.2996 99.1946Z"/>
<path d="M66.2971 99.1946C65.6688 99.1946 65.1055 99.0451 64.6071 98.7461C64.1131 98.4428 63.7231 98.0398 63.4371 97.5371C63.1511 97.0344 63.0081 96.4819 63.0081 95.8796C63.0081 95.4289 63.0905 95.0043 63.2551 94.6056C63.4198 94.2026 63.6495 93.8494 63.9441 93.5461C64.2431 93.2384 64.592 92.9979 64.9906 92.8246C65.3893 92.6513 65.8248 92.5646 66.2971 92.5646C66.9255 92.5646 67.4866 92.7163 67.9806 93.0196C68.479 93.3186 68.8711 93.7194 69.1571 94.2221C69.4431 94.7248 69.5861 95.2773 69.5861 95.8796C69.5861 96.3303 69.5038 96.7571 69.3391 97.1601C69.1745 97.5588 68.9448 97.9119 68.6501 98.2196C68.3555 98.5229 68.0066 98.7613 67.6036 98.9346C67.205 99.1079 66.7695 99.1946 66.2971 99.1946ZM66.2971 98.4926C66.7868 98.4926 67.2201 98.3864 67.5971 98.1741C67.9741 97.9574 68.2688 97.6541 68.4811 97.2641C68.6978 96.8741 68.8061 96.4126 68.8061 95.8796C68.8061 95.3466 68.6978 94.8851 68.4811 94.4951C68.2688 94.1008 67.9741 93.7974 67.5971 93.5851C67.2201 93.3728 66.7868 93.2666 66.2971 93.2666C65.8075 93.2666 65.3741 93.3728 64.9971 93.5851C64.6201 93.7974 64.3233 94.1008 64.1066 94.4951C63.8943 94.8851 63.7881 95.3466 63.7881 95.8796C63.7881 96.4126 63.8943 96.8741 64.1066 97.2641C64.3233 97.6541 64.6201 97.9574 64.9971 98.1741C65.3741 98.3864 65.8075 98.4926 66.2971 98.4926Z"/>
<path d="M70.9503 98.9996V92.7596H73.6023C74.274 92.7596 74.8243 92.8983 75.2533 93.1756C75.6867 93.4486 75.9033 93.8516 75.9033 94.3846C75.9033 94.5926 75.8578 94.7898 75.7668 94.9761C75.6758 95.1624 75.5415 95.3271 75.3638 95.4701C75.1905 95.6088 74.976 95.7149 74.7203 95.7886L74.7073 95.6326C75.197 95.7366 75.561 95.9294 75.7993 96.2111C76.042 96.4928 76.1633 96.8329 76.1633 97.2316C76.1633 97.5956 76.0658 97.9098 75.8708 98.1741C75.6758 98.4384 75.3985 98.6421 75.0388 98.7851C74.6835 98.9281 74.2653 98.9996 73.7843 98.9996H70.9503ZM71.6783 98.3236H73.6803C74.235 98.3236 74.6662 98.2348 74.9738 98.0571C75.2815 97.8751 75.4353 97.5999 75.4353 97.2316C75.4353 96.8589 75.2815 96.5838 74.9738 96.4061C74.6662 96.2284 74.235 96.1396 73.6803 96.1396H71.5093V95.4636H73.5373C74.0573 95.4636 74.4603 95.3856 74.7463 95.2296C75.0323 95.0736 75.1753 94.8136 75.1753 94.4496C75.1753 94.0856 75.0345 93.8256 74.7528 93.6696C74.4712 93.5136 74.066 93.4356 73.5373 93.4356H71.6783V98.3236Z"/>
<path d="M82.0383 98.9996L79.8413 95.6326L81.6743 92.7596H82.4803L80.6473 95.6066L82.9483 98.9996H82.0383ZM77.7743 98.9996V92.7596H78.5023V95.3336H80.3483V96.0096H78.5023V98.9996H77.7743Z"/>
<path d="M86.7434 99.1946C86.0934 99.1946 85.5214 99.0451 85.0274 98.7461C84.5377 98.4428 84.1542 98.0398 83.8769 97.5371C83.6039 97.0344 83.4674 96.4819 83.4674 95.8796C83.4674 95.4289 83.5454 95.0043 83.7014 94.6056C83.8617 94.2026 84.0849 93.8494 84.3709 93.5461C84.6612 93.2384 85.0079 92.9979 85.4109 92.8246C85.8139 92.6513 86.2581 92.5646 86.7434 92.5646C87.4021 92.5646 87.9394 92.7011 88.3554 92.9741C88.7757 93.2428 89.1181 93.5786 89.3824 93.9816L89.2654 94.1376V92.7596H89.9934V98.9996H89.2654V97.6216L89.3824 97.7776C89.1181 98.1806 88.7757 98.5186 88.3554 98.7916C87.9394 99.0603 87.4021 99.1946 86.7434 99.1946ZM86.7564 98.4926C87.2461 98.4926 87.6794 98.3864 88.0564 98.1741C88.4334 97.9574 88.7281 97.6541 88.9404 97.2641C89.1571 96.8741 89.2654 96.4126 89.2654 95.8796C89.2654 95.3466 89.1571 94.8851 88.9404 94.4951C88.7281 94.1008 88.4334 93.7974 88.0564 93.5851C87.6794 93.3728 87.2461 93.2666 86.7564 93.2666C86.2667 93.2666 85.8334 93.3728 85.4564 93.5851C85.0794 93.7974 84.7826 94.1008 84.5659 94.4951C84.3536 94.8851 84.2474 95.3466 84.2474 95.8796C84.2474 96.4126 84.3536 96.8741 84.5659 97.2641C84.7826 97.6541 85.0794 97.9574 85.4564 98.1741C85.8334 98.3864 86.2667 98.4926 86.7564 98.4926Z"/>
<path d="M94.5918 99.0646L94.2797 98.3626C94.7217 98.2499 95.0446 98.0614 95.2482 97.7971C95.4562 97.5284 95.5884 97.1449 95.6447 96.6466C95.7054 96.1483 95.7357 95.4939 95.7357 94.6836V92.7596H100.351V98.9996H99.6227V93.4356H96.4637V94.6836C96.4637 95.3856 96.4377 95.9879 96.3857 96.4906C96.3381 96.9889 96.2471 97.4071 96.1127 97.7451C95.9827 98.0831 95.7942 98.3583 95.5472 98.5706C95.3046 98.7786 94.9861 98.9433 94.5918 99.0646Z"/>
<path d="M105.007 99.1946C104.378 99.1946 103.815 99.0451 103.317 98.7461C102.823 98.4428 102.433 98.0398 102.147 97.5371C101.861 97.0344 101.718 96.4819 101.718 95.8796C101.718 95.4289 101.8 95.0043 101.965 94.6056C102.129 94.2026 102.359 93.8494 102.654 93.5461C102.953 93.2384 103.302 92.9979 103.7 92.8246C104.099 92.6513 104.534 92.5646 105.007 92.5646C105.635 92.5646 106.196 92.7163 106.69 93.0196C107.189 93.3186 107.581 93.7194 107.867 94.2221C108.153 94.7248 108.296 95.2773 108.296 95.8796C108.296 96.3303 108.213 96.7571 108.049 97.1601C107.884 97.5588 107.654 97.9119 107.36 98.2196C107.065 98.5229 106.716 98.7613 106.313 98.9346C105.915 99.1079 105.479 99.1946 105.007 99.1946ZM105.007 98.4926C105.496 98.4926 105.93 98.3864 106.307 98.1741C106.684 97.9574 106.978 97.6541 107.191 97.2641C107.407 96.8741 107.516 96.4126 107.516 95.8796C107.516 95.3466 107.407 94.8851 107.191 94.4951C106.978 94.1008 106.684 93.7974 106.307 93.5851C105.93 93.3728 105.496 93.2666 105.007 93.2666C104.517 93.2666 104.084 93.3728 103.707 93.5851C103.33 93.7974 103.033 94.1008 102.816 94.4951C102.604 94.8851 102.498 95.3466 102.498 95.8796C102.498 96.4126 102.604 96.8741 102.816 97.2641C103.033 97.6541 103.33 97.9574 103.707 98.1741C104.084 98.3864 104.517 98.4926 105.007 98.4926Z"/>
<path d="M109.66 98.9996V92.7596H113.573V93.4356H110.388V98.9996H109.66Z"/>
<path d="M117.499 99.1946C116.871 99.1946 116.308 99.0451 115.809 98.7461C115.315 98.4428 114.925 98.0398 114.639 97.5371C114.353 97.0344 114.21 96.4819 114.21 95.8796C114.21 95.4289 114.293 95.0043 114.457 94.6056C114.622 94.2026 114.852 93.8494 115.146 93.5461C115.445 93.2384 115.794 92.9979 116.193 92.8246C116.592 92.6513 117.027 92.5646 117.499 92.5646C118.128 92.5646 118.689 92.7163 119.183 93.0196C119.681 93.3186 120.073 93.7194 120.359 94.2221C120.645 94.7248 120.788 95.2773 120.788 95.8796C120.788 96.3303 120.706 96.7571 120.541 97.1601C120.377 97.5588 120.147 97.9119 119.852 98.2196C119.558 98.5229 119.209 98.7613 118.806 98.9346C118.407 99.1079 117.972 99.1946 117.499 99.1946ZM117.499 98.4926C117.989 98.4926 118.422 98.3864 118.799 98.1741C119.176 97.9574 119.471 97.6541 119.683 97.2641C119.9 96.8741 120.008 96.4126 120.008 95.8796C120.008 95.3466 119.9 94.8851 119.683 94.4951C119.471 94.1008 119.176 93.7974 118.799 93.5851C118.422 93.3728 117.989 93.2666 117.499 93.2666C117.01 93.2666 116.576 93.3728 116.199 93.5851C115.822 93.7974 115.526 94.1008 115.309 94.4951C115.097 94.8851 114.99 95.3466 114.99 95.8796C114.99 96.4126 115.097 96.8741 115.309 97.2641C115.526 97.6541 115.822 97.9574 116.199 98.1741C116.576 98.3864 117.01 98.4926 117.499 98.4926Z"/>
<path d="M123.713 98.9996V93.4356H121.386V92.7596H126.768V93.4356H124.441V98.9996H123.713Z"/>
<path d="M127.948 98.9996V92.7596H128.676V97.8036L132.81 92.7596H133.395V98.9996H132.667V93.9036L128.494 98.9996H127.948Z"/>
<path d="M135.343 98.9996V92.7596H140.699V98.9996H139.971V93.4356H136.071V98.9996H135.343Z"/>
<path d="M145.341 99.1946C144.691 99.1946 144.119 99.0451 143.625 98.7461C143.135 98.4428 142.752 98.0398 142.474 97.5371C142.201 97.0344 142.065 96.4819 142.065 95.8796C142.065 95.4289 142.143 95.0043 142.299 94.6056C142.459 94.2026 142.682 93.8494 142.968 93.5461C143.259 93.2384 143.605 92.9979 144.008 92.8246C144.411 92.6513 144.856 92.5646 145.341 92.5646C146 92.5646 146.537 92.7011 146.953 92.9741C147.373 93.2428 147.716 93.5786 147.98 93.9816L147.863 94.1376V92.7596H148.591V98.9996H147.863V97.6216L147.98 97.7776C147.716 98.1806 147.373 98.5186 146.953 98.7916C146.537 99.0603 146 99.1946 145.341 99.1946ZM145.354 98.4926C145.844 98.4926 146.277 98.3864 146.654 98.1741C147.031 97.9574 147.326 97.6541 147.538 97.2641C147.755 96.8741 147.863 96.4126 147.863 95.8796C147.863 95.3466 147.755 94.8851 147.538 94.4951C147.326 94.1008 147.031 93.7974 146.654 93.5851C146.277 93.3728 145.844 93.2666 145.354 93.2666C144.864 93.2666 144.431 93.3728 144.054 93.5851C143.677 93.7974 143.38 94.1008 143.163 94.4951C142.951 94.8851 142.845 95.3466 142.845 95.8796C142.845 96.4126 142.951 96.8741 143.163 97.2641C143.38 97.6541 143.677 97.9574 144.054 98.1741C144.431 98.3864 144.864 98.4926 145.354 98.4926Z"/>
<path d="M29.1051 115V108.76H31.7571C32.4287 108.76 32.9791 108.898 33.4081 109.176C33.8414 109.449 34.0581 109.852 34.0581 110.385C34.0581 110.593 34.0126 110.79 33.9216 110.976C33.8306 111.162 33.6962 111.327 33.5186 111.47C33.3452 111.609 33.1307 111.715 32.8751 111.789L32.8621 111.633C33.3517 111.737 33.7157 111.929 33.9541 112.211C34.1967 112.493 34.3181 112.833 34.3181 113.232C34.3181 113.596 34.2206 113.91 34.0256 114.174C33.8306 114.438 33.5532 114.642 33.1936 114.785C32.8382 114.928 32.4201 115 31.9391 115H29.1051ZM29.8331 114.324H31.8351C32.3897 114.324 32.8209 114.235 33.1286 114.057C33.4362 113.875 33.5901 113.6 33.5901 113.232C33.5901 112.859 33.4362 112.584 33.1286 112.406C32.8209 112.228 32.3897 112.14 31.8351 112.14H29.6641V111.464H31.6921C32.2121 111.464 32.6151 111.386 32.9011 111.23C33.1871 111.074 33.3301 110.814 33.3301 110.45C33.3301 110.086 33.1892 109.826 32.9076 109.67C32.6259 109.514 32.2207 109.436 31.6921 109.436H29.8331V114.324Z"/>
<path d="M39.046 115V108.76H41.698C42.3697 108.76 42.92 108.898 43.349 109.176C43.7823 109.449 43.999 109.852 43.999 110.385C43.999 110.593 43.9535 110.79 43.8625 110.976C43.7715 111.162 43.6372 111.327 43.4595 111.47C43.2862 111.609 43.0717 111.715 42.816 111.789L42.803 111.633C43.2927 111.737 43.6567 111.929 43.895 112.211C44.1377 112.493 44.259 112.833 44.259 113.232C44.259 113.596 44.1615 113.91 43.9665 114.174C43.7715 114.438 43.4942 114.642 43.1345 114.785C42.7792 114.928 42.361 115 41.88 115H39.046ZM39.774 114.324H41.776C42.3307 114.324 42.7618 114.235 43.0695 114.057C43.3772 113.875 43.531 113.6 43.531 113.232C43.531 112.859 43.3772 112.584 43.0695 112.406C42.7618 112.228 42.3307 112.14 41.776 112.14H39.605V111.464H41.633C42.153 111.464 42.556 111.386 42.842 111.23C43.128 111.074 43.271 110.814 43.271 110.45C43.271 110.086 43.1302 109.826 42.8485 109.67C42.5668 109.514 42.1617 109.436 41.633 109.436H39.774V114.324Z"/>
<path d="M48.6 115.195C47.95 115.195 47.3758 115.058 46.8775 114.785C46.3791 114.508 45.9891 114.122 45.7075 113.628C45.4258 113.134 45.285 112.56 45.285 111.906C45.285 111.429 45.3651 110.987 45.5255 110.58C45.6858 110.172 45.9111 109.819 46.2015 109.52C46.4918 109.217 46.8298 108.983 47.2155 108.818C47.6055 108.649 48.028 108.565 48.483 108.565C48.964 108.565 49.393 108.651 49.77 108.825C50.1513 108.994 50.4676 109.232 50.719 109.54C50.9746 109.847 51.161 110.207 51.278 110.619C51.395 111.03 51.4296 111.477 51.382 111.958H46.091C46.065 112.465 46.1538 112.909 46.3575 113.29C46.5611 113.667 46.8623 113.962 47.261 114.174C47.6596 114.386 48.1363 114.493 48.691 114.493C49.0246 114.493 49.3561 114.434 49.6855 114.317C50.0191 114.196 50.303 114.025 50.537 113.804L50.9595 114.415C50.7471 114.592 50.5088 114.74 50.2445 114.857C49.9801 114.974 49.7071 115.058 49.4255 115.11C49.1481 115.166 48.873 115.195 48.6 115.195ZM46.117 111.282H50.602C50.576 110.645 50.3853 110.151 50.03 109.8C49.6746 109.444 49.159 109.267 48.483 109.267C47.8286 109.267 47.2891 109.444 46.8645 109.8C46.4398 110.151 46.1906 110.645 46.117 111.282Z"/>
<path d="M57.0341 115L54.8371 111.633L56.6701 108.76H57.4761L55.6431 111.607L57.9441 115H57.0341ZM52.7701 115V108.76H53.4981V111.334H55.3441V112.01H53.4981V115H52.7701Z"/>
<path d="M60.7352 115V109.436H58.4082V108.76H63.7902V109.436H61.4632V115H60.7352Z"/>
<path d="M67.6748 115.195C67.0465 115.195 66.4832 115.045 65.9848 114.746C65.4908 114.443 65.1008 114.04 64.8148 113.537C64.5288 113.034 64.3858 112.482 64.3858 111.88C64.3858 111.429 64.4682 111.004 64.6328 110.606C64.7975 110.203 65.0272 109.849 65.3218 109.546C65.6208 109.238 65.9697 108.998 66.3683 108.825C66.767 108.651 67.2025 108.565 67.6748 108.565C68.3032 108.565 68.8643 108.716 69.3583 109.02C69.8567 109.319 70.2488 109.719 70.5348 110.222C70.8208 110.725 70.9638 111.277 70.9638 111.88C70.9638 112.33 70.8815 112.757 70.7168 113.16C70.5522 113.559 70.3225 113.912 70.0278 114.22C69.7332 114.523 69.3843 114.761 68.9813 114.935C68.5827 115.108 68.1472 115.195 67.6748 115.195ZM67.6748 114.493C68.1645 114.493 68.5978 114.386 68.9748 114.174C69.3518 113.957 69.6465 113.654 69.8588 113.264C70.0755 112.874 70.1838 112.413 70.1838 111.88C70.1838 111.347 70.0755 110.885 69.8588 110.495C69.6465 110.101 69.3518 109.797 68.9748 109.585C68.5978 109.373 68.1645 109.267 67.6748 109.267C67.1852 109.267 66.7518 109.373 66.3748 109.585C65.9978 109.797 65.701 110.101 65.4843 110.495C65.272 110.885 65.1658 111.347 65.1658 111.88C65.1658 112.413 65.272 112.874 65.4843 113.264C65.701 113.654 65.9978 113.957 66.3748 114.174C66.7518 114.386 67.1852 114.493 67.6748 114.493Z"/>
<path d="M72.328 117.73V108.76H73.056V109.813C73.329 109.453 73.6714 109.156 74.083 108.922C74.4947 108.684 75.032 108.565 75.695 108.565C76.3234 108.565 76.8737 108.716 77.346 109.02C77.8227 109.319 78.1932 109.719 78.4575 110.222C78.7219 110.725 78.854 111.277 78.854 111.88C78.854 112.33 78.7782 112.757 78.6265 113.16C78.4749 113.559 78.2582 113.912 77.9765 114.22C77.6992 114.523 77.3677 114.761 76.982 114.935C76.5964 115.108 76.1674 115.195 75.695 115.195C75.0797 115.195 74.5532 115.075 74.1155 114.837C73.6822 114.599 73.329 114.289 73.056 113.908V117.73H72.328ZM75.565 114.493C76.0547 114.493 76.488 114.386 76.865 114.174C77.242 113.957 77.5367 113.654 77.749 113.264C77.9657 112.874 78.074 112.413 78.074 111.88C78.074 111.347 77.9657 110.885 77.749 110.495C77.5367 110.101 77.242 109.797 76.865 109.585C76.488 109.373 76.0547 109.267 75.565 109.267C75.0754 109.267 74.642 109.373 74.265 109.585C73.888 109.797 73.5912 110.101 73.3745 110.495C73.1622 110.885 73.056 111.347 73.056 111.88C73.056 112.413 73.1622 112.874 73.3745 113.264C73.5912 113.654 73.888 113.957 74.265 114.174C74.642 114.386 75.0754 114.493 75.565 114.493Z"/>
<path d="M83.0119 115.195C82.3619 115.195 81.7877 115.058 81.2894 114.785C80.7911 114.508 80.4011 114.122 80.1194 113.628C79.8377 113.134 79.6969 112.56 79.6969 111.906C79.6969 111.429 79.7771 110.987 79.9374 110.58C80.0977 110.172 80.3231 109.819 80.6134 109.52C80.9037 109.217 81.2417 108.983 81.6274 108.818C82.0174 108.649 82.4399 108.565 82.8949 108.565C83.3759 108.565 83.8049 108.651 84.1819 108.825C84.5632 108.994 84.8796 109.232 85.1309 109.54C85.3866 109.847 85.5729 110.207 85.6899 110.619C85.8069 111.03 85.8416 111.477 85.7939 111.958H80.5029C80.4769 112.465 80.5657 112.909 80.7694 113.29C80.9731 113.667 81.2742 113.962 81.6729 114.174C82.0716 114.386 82.5482 114.493 83.1029 114.493C83.4366 114.493 83.7681 114.434 84.0974 114.317C84.4311 114.196 84.7149 114.025 84.9489 113.804L85.3714 114.415C85.1591 114.592 84.9207 114.74 84.6564 114.857C84.3921 114.974 84.1191 115.058 83.8374 115.11C83.5601 115.166 83.2849 115.195 83.0119 115.195ZM80.5289 111.282H85.0139C84.9879 110.645 84.7972 110.151 84.4419 109.8C84.0866 109.444 83.5709 109.267 82.8949 109.267C82.2406 109.267 81.7011 109.444 81.2764 109.8C80.8517 110.151 80.6026 110.645 80.5289 111.282Z"/>
<path d="M31.3951 40.2246C30.6701 40.2246 30.0201 40.0521 29.4451 39.7071C28.8751 39.3571 28.4251 38.8921 28.0951 38.3121C27.7651 37.7321 27.6001 37.0946 27.6001 36.3996C27.6001 35.8796 27.6951 35.3896 27.8851 34.9296C28.0751 34.4646 28.3401 34.0571 28.6801 33.7071C29.0251 33.3521 29.4276 33.0746 29.8876 32.8746C30.3476 32.6746 30.8501 32.5746 31.3951 32.5746C32.1201 32.5746 32.7676 32.7496 33.3376 33.0996C33.9126 33.4446 34.3651 33.9071 34.6951 34.4871C35.0251 35.0671 35.1901 35.7046 35.1901 36.3996C35.1901 36.9196 35.0951 37.4121 34.9051 37.8771C34.7151 38.3371 34.4501 38.7446 34.1101 39.0996C33.7701 39.4496 33.3676 39.7246 32.9026 39.9246C32.4426 40.1246 31.9401 40.2246 31.3951 40.2246ZM31.3951 39.4146C31.9601 39.4146 32.4601 39.2921 32.8951 39.0471C33.3301 38.7971 33.6701 38.4471 33.9151 37.9971C34.1651 37.5471 34.2901 37.0146 34.2901 36.3996C34.2901 35.7846 34.1651 35.2521 33.9151 34.8021C33.6701 34.3471 33.3301 33.9971 32.8951 33.7521C32.4601 33.5071 31.9601 33.3846 31.3951 33.3846C30.8301 33.3846 30.3301 33.5071 29.8951 33.7521C29.4601 33.9971 29.1176 34.3471 28.8676 34.8021C28.6226 35.2521 28.5001 35.7846 28.5001 36.3996C28.5001 37.0146 28.6226 37.5471 28.8676 37.9971C29.1176 38.4471 29.4601 38.7971 29.8951 39.0471C30.3301 39.2921 30.8301 39.4146 31.3951 39.4146Z"/>
<path d="M38.5641 39.9996V33.5796H35.8791V32.7996H42.0891V33.5796H39.4041V39.9996H38.5641Z"/>
<path d="M49.2379 39.9996V30.3396L46.1779 31.4946L45.9529 30.8346L50.0029 29.2746H50.0779V39.9996H49.2379Z"/>
<path d="M56.6363 40.2246C56.0013 40.2246 55.4263 40.0821 54.9113 39.7971C54.4013 39.5121 53.9638 39.1171 53.5988 38.6121C53.2388 38.1071 52.9613 37.5246 52.7663 36.8646C52.5763 36.2046 52.4813 35.4996 52.4813 34.7496C52.4813 33.9946 52.5763 33.2871 52.7663 32.6271C52.9613 31.9671 53.2388 31.3871 53.5988 30.8871C53.9638 30.3821 54.4013 29.9871 54.9113 29.7021C55.4263 29.4171 56.0013 29.2746 56.6363 29.2746C57.2663 29.2746 57.8363 29.4171 58.3463 29.7021C58.8563 29.9871 59.2938 30.3821 59.6588 30.8871C60.0238 31.3871 60.3038 31.9671 60.4988 32.6271C60.6938 33.2871 60.7913 33.9946 60.7913 34.7496C60.7913 35.4996 60.6938 36.2046 60.4988 36.8646C60.3038 37.5246 60.0238 38.1071 59.6588 38.6121C59.2938 39.1171 58.8563 39.5121 58.3463 39.7971C57.8363 40.0821 57.2663 40.2246 56.6363 40.2246ZM56.6363 39.3846C57.1163 39.3846 57.5538 39.2771 57.9488 39.0621C58.3438 38.8421 58.6838 38.5296 58.9688 38.1246C59.2538 37.7196 59.4738 37.2321 59.6288 36.6621C59.7838 36.0921 59.8613 35.4546 59.8613 34.7496C59.8613 33.8096 59.7263 32.9921 59.4563 32.2971C59.1863 31.6021 58.8088 31.0646 58.3238 30.6846C57.8388 30.3046 57.2763 30.1146 56.6363 30.1146C56.1563 30.1146 55.7188 30.2246 55.3238 30.4446C54.9288 30.6596 54.5888 30.9696 54.3038 31.3746C54.0188 31.7796 53.7988 32.2671 53.6438 32.8371C53.4888 33.4071 53.4113 34.0446 53.4113 34.7496C53.4113 35.6896 53.5463 36.5071 53.8163 37.2021C54.0863 37.8971 54.4638 38.4346 54.9488 38.8146C55.4338 39.1946 55.9963 39.3846 56.6363 39.3846Z"/>
<path d="M66.4437 40.2246C65.8087 40.2246 65.2337 40.0821 64.7187 39.7971C64.2087 39.5121 63.7712 39.1171 63.4062 38.6121C63.0462 38.1071 62.7687 37.5246 62.5737 36.8646C62.3837 36.2046 62.2887 35.4996 62.2887 34.7496C62.2887 33.9946 62.3837 33.2871 62.5737 32.6271C62.7687 31.9671 63.0462 31.3871 63.4062 30.8871C63.7712 30.3821 64.2087 29.9871 64.7187 29.7021C65.2337 29.4171 65.8087 29.2746 66.4437 29.2746C67.0737 29.2746 67.6437 29.4171 68.1537 29.7021C68.6637 29.9871 69.1012 30.3821 69.4662 30.8871C69.8312 31.3871 70.1112 31.9671 70.3062 32.6271C70.5012 33.2871 70.5987 33.9946 70.5987 34.7496C70.5987 35.4996 70.5012 36.2046 70.3062 36.8646C70.1112 37.5246 69.8312 38.1071 69.4662 38.6121C69.1012 39.1171 68.6637 39.5121 68.1537 39.7971C67.6437 40.0821 67.0737 40.2246 66.4437 40.2246ZM66.4437 39.3846C66.9237 39.3846 67.3612 39.2771 67.7562 39.0621C68.1512 38.8421 68.4912 38.5296 68.7762 38.1246C69.0612 37.7196 69.2812 37.2321 69.4362 36.6621C69.5912 36.0921 69.6687 35.4546 69.6687 34.7496C69.6687 33.8096 69.5337 32.9921 69.2637 32.2971C68.9937 31.6021 68.6162 31.0646 68.1312 30.6846C67.6462 30.3046 67.0837 30.1146 66.4437 30.1146C65.9637 30.1146 65.5262 30.2246 65.1312 30.4446C64.7362 30.6596 64.3962 30.9696 64.1112 31.3746C63.8262 31.7796 63.6062 32.2671 63.4512 32.8371C63.2962 33.4071 63.2187 34.0446 63.2187 34.7496C63.2187 35.6896 63.3537 36.5071 63.6237 37.2021C63.8937 37.8971 64.2712 38.4346 64.7562 38.8146C65.2412 39.1946 65.8037 39.3846 66.4437 39.3846Z"/>
<path d="M76.2512 40.2246C75.6162 40.2246 75.0412 40.0821 74.5262 39.7971C74.0162 39.5121 73.5787 39.1171 73.2137 38.6121C72.8537 38.1071 72.5762 37.5246 72.3812 36.8646C72.1912 36.2046 72.0962 35.4996 72.0962 34.7496C72.0962 33.9946 72.1912 33.2871 72.3812 32.6271C72.5762 31.9671 72.8537 31.3871 73.2137 30.8871C73.5787 30.3821 74.0162 29.9871 74.5262 29.7021C75.0412 29.4171 75.6162 29.2746 76.2512 29.2746C76.8812 29.2746 77.4512 29.4171 77.9612 29.7021C78.4712 29.9871 78.9087 30.3821 79.2737 30.8871C79.6387 31.3871 79.9187 31.9671 80.1137 32.6271C80.3087 33.2871 80.4062 33.9946 80.4062 34.7496C80.4062 35.4996 80.3087 36.2046 80.1137 36.8646C79.9187 37.5246 79.6387 38.1071 79.2737 38.6121C78.9087 39.1171 78.4712 39.5121 77.9612 39.7971C77.4512 40.0821 76.8812 40.2246 76.2512 40.2246ZM76.2512 39.3846C76.7312 39.3846 77.1687 39.2771 77.5637 39.0621C77.9587 38.8421 78.2987 38.5296 78.5837 38.1246C78.8687 37.7196 79.0887 37.2321 79.2437 36.6621C79.3987 36.0921 79.4762 35.4546 79.4762 34.7496C79.4762 33.8096 79.3412 32.9921 79.0712 32.2971C78.8012 31.6021 78.4237 31.0646 77.9387 30.6846C77.4537 30.3046 76.8912 30.1146 76.2512 30.1146C75.7712 30.1146 75.3337 30.2246 74.9387 30.4446C74.5437 30.6596 74.2037 30.9696 73.9187 31.3746C73.6337 31.7796 73.4137 32.2671 73.2587 32.8371C73.1037 33.4071 73.0262 34.0446 73.0262 34.7496C73.0262 35.6896 73.1612 36.5071 73.4312 37.2021C73.7012 37.8971 74.0787 38.4346 74.5637 38.8146C75.0487 39.1946 75.6112 39.3846 76.2512 39.3846Z"/>
<path d="M85.8751 43.1496V32.7996H86.7151V34.0146C87.0301 33.5996 87.4251 33.2571 87.9001 32.9871C88.3751 32.7121 88.9951 32.5746 89.7601 32.5746C90.4851 32.5746 91.1201 32.7496 91.6651 33.0996C92.2151 33.4446 92.6426 33.9071 92.9476 34.4871C93.2526 35.0671 93.4051 35.7046 93.4051 36.3996C93.4051 36.9196 93.3176 37.4121 93.1426 37.8771C92.9676 38.3371 92.7176 38.7446 92.3926 39.0996C92.0726 39.4496 91.6901 39.7246 91.2451 39.9246C90.8001 40.1246 90.3051 40.2246 89.7601 40.2246C89.0501 40.2246 88.4426 40.0871 87.9376 39.8121C87.4376 39.5371 87.0301 39.1796 86.7151 38.7396V43.1496H85.8751ZM89.6101 39.4146C90.1751 39.4146 90.6751 39.2921 91.1101 39.0471C91.5451 38.7971 91.8851 38.4471 92.1301 37.9971C92.3801 37.5471 92.5051 37.0146 92.5051 36.3996C92.5051 35.7846 92.3801 35.2521 92.1301 34.8021C91.8851 34.3471 91.5451 33.9971 91.1101 33.7521C90.6751 33.5071 90.1751 33.3846 89.6101 33.3846C89.0451 33.3846 88.5451 33.5071 88.1101 33.7521C87.6751 33.9971 87.3326 34.3471 87.0826 34.8021C86.8376 35.2521 86.7151 35.7846 86.7151 36.3996C86.7151 37.0146 86.8376 37.5471 87.0826 37.9971C87.3326 38.4471 87.6751 38.7971 88.1101 39.0471C88.5451 39.2921 89.0451 39.4146 89.6101 39.4146Z"/>
<path d="M95.0411 43.3746C94.8561 43.3746 94.6686 43.3496 94.4786 43.2996C94.2936 43.2496 94.0911 43.1546 93.8711 43.0146L94.0961 42.2496C94.2461 42.3596 94.4061 42.4396 94.5761 42.4896C94.7511 42.5396 94.9011 42.5646 95.0261 42.5646C95.4461 42.5646 95.7611 42.4571 95.9711 42.2421C96.1811 42.0321 96.3611 41.7146 96.5111 41.2896L96.8861 40.2096L94.0061 32.7996H94.9511L97.3661 39.0696L99.7211 32.7996H100.621L97.3811 41.3796C97.1761 41.9196 96.9586 42.3321 96.7286 42.6171C96.5036 42.9071 96.2536 43.1046 95.9786 43.2096C95.7036 43.3196 95.3911 43.3746 95.0411 43.3746Z"/>
<path d="M105.356 40.2246C104.751 40.2246 104.209 40.1246 103.729 39.9246C103.254 39.7196 102.849 39.4196 102.514 39.0246C102.184 38.6296 101.931 38.1446 101.756 37.5696C101.586 36.9896 101.501 36.3246 101.501 35.5746C101.501 34.7546 101.554 34.0171 101.659 33.3621C101.769 32.7071 101.946 32.1371 102.191 31.6521C102.441 31.1621 102.776 30.7596 103.196 30.4446C103.616 30.1246 104.136 29.8946 104.756 29.7546L108.206 28.9746L108.386 29.8146L105.041 30.5646C104.361 30.7196 103.834 30.9721 103.459 31.3221C103.084 31.6671 102.811 32.1021 102.641 32.6271C102.476 33.1471 102.366 33.7446 102.311 34.4196C102.626 33.8646 103.044 33.4196 103.564 33.0846C104.089 32.7446 104.721 32.5746 105.461 32.5746C106.166 32.5746 106.786 32.7496 107.321 33.0996C107.856 33.4446 108.274 33.9071 108.574 34.4871C108.879 35.0671 109.031 35.7046 109.031 36.3996C109.031 36.9196 108.944 37.4121 108.769 37.8771C108.594 38.3371 108.341 38.7446 108.011 39.0996C107.686 39.4496 107.299 39.7246 106.849 39.9246C106.404 40.1246 105.906 40.2246 105.356 40.2246ZM105.311 39.4146C105.861 39.4146 106.349 39.2921 106.774 39.0471C107.199 38.7971 107.531 38.4471 107.771 37.9971C108.011 37.5471 108.131 37.0146 108.131 36.3996C108.131 35.7846 108.011 35.2521 107.771 34.8021C107.531 34.3471 107.199 33.9971 106.774 33.7521C106.349 33.5071 105.861 33.3846 105.311 33.3846C104.761 33.3846 104.274 33.5071 103.849 33.7521C103.424 33.9971 103.091 34.3471 102.851 34.8021C102.611 35.2521 102.491 35.7846 102.491 36.3996C102.491 37.0146 102.611 37.5471 102.851 37.9971C103.091 38.4471 103.424 38.7971 103.849 39.0471C104.274 39.2921 104.761 39.4146 105.311 39.4146Z"/>
</mask>
<path d="M27.9751 77.1646L27.2476 75.2221C27.7626 75.0921 28.1376 74.8971 28.3726 74.6371C28.6076 74.3771 28.7551 74.0246 28.8151 73.5796C28.8801 73.1296 28.9126 72.5571 28.9126 71.8621V69.4246H35.4151V76.9996H33.2251V71.1796H30.9151V71.8621C30.9151 72.6421 30.8701 73.3321 30.7801 73.9321C30.6951 74.5321 30.5451 75.0496 30.3301 75.4846C30.1151 75.9146 29.8176 76.2671 29.4376 76.5421C29.0576 76.8171 28.5701 77.0246 27.9751 77.1646Z" fill="black"/>
<path d="M40.8051 77.2246C39.9901 77.2246 39.2676 77.0421 38.6376 76.6771C38.0076 76.3121 37.5126 75.8271 37.1526 75.2221C36.7976 74.6121 36.6201 73.9421 36.6201 73.2121C36.6201 72.6771 36.7226 72.1696 36.9276 71.6896C37.1326 71.2046 37.4226 70.7771 37.7976 70.4071C38.1726 70.0321 38.6151 69.7371 39.1251 69.5221C39.6351 69.3071 40.1951 69.1996 40.8051 69.1996C41.6201 69.1996 42.3401 69.3821 42.9651 69.7471C43.5951 70.1121 44.0876 70.5996 44.4426 71.2096C44.8026 71.8146 44.9826 72.4821 44.9826 73.2121C44.9826 73.7421 44.8801 74.2496 44.6751 74.7346C44.4701 75.2196 44.1801 75.6496 43.8051 76.0246C43.4351 76.3946 42.9951 76.6871 42.4851 76.9021C41.9751 77.1171 41.4151 77.2246 40.8051 77.2246ZM40.8051 75.3271C41.1901 75.3271 41.5351 75.2421 41.8401 75.0721C42.1451 74.8971 42.3851 74.6521 42.5601 74.3371C42.7351 74.0171 42.8226 73.6421 42.8226 73.2121C42.8226 72.7771 42.7351 72.4021 42.5601 72.0871C42.3901 71.7721 42.1526 71.5296 41.8476 71.3596C41.5426 71.1846 41.1951 71.0971 40.8051 71.0971C40.4151 71.0971 40.0651 71.1846 39.7551 71.3596C39.4501 71.5296 39.2101 71.7721 39.0351 72.0871C38.8651 72.4021 38.7801 72.7771 38.7801 73.2121C38.7801 73.6471 38.8676 74.0221 39.0426 74.3371C39.2176 74.6521 39.4576 74.8971 39.7626 75.0721C40.0676 75.2421 40.4151 75.3271 40.8051 75.3271Z" fill="black"/>
<path d="M46.1858 76.9996V69.4246H51.3158V71.1796H48.3758V76.9996H46.1858Z" fill="black"/>
<path d="M55.9815 77.2246C55.1665 77.2246 54.444 77.0421 53.814 76.6771C53.184 76.3121 52.689 75.8271 52.329 75.2221C51.974 74.6121 51.7965 73.9421 51.7965 73.2121C51.7965 72.6771 51.899 72.1696 52.104 71.6896C52.309 71.2046 52.599 70.7771 52.974 70.4071C53.349 70.0321 53.7915 69.7371 54.3015 69.5221C54.8115 69.3071 55.3715 69.1996 55.9815 69.1996C56.7965 69.1996 57.5165 69.3821 58.1415 69.7471C58.7715 70.1121 59.264 70.5996 59.619 71.2096C59.979 71.8146 60.159 72.4821 60.159 73.2121C60.159 73.7421 60.0565 74.2496 59.8515 74.7346C59.6465 75.2196 59.3565 75.6496 58.9815 76.0246C58.6115 76.3946 58.1715 76.6871 57.6615 76.9021C57.1515 77.1171 56.5915 77.2246 55.9815 77.2246ZM55.9815 75.3271C56.3665 75.3271 56.7115 75.2421 57.0165 75.0721C57.3215 74.8971 57.5615 74.6521 57.7365 74.3371C57.9115 74.0171 57.999 73.6421 57.999 73.2121C57.999 72.7771 57.9115 72.4021 57.7365 72.0871C57.5665 71.7721 57.329 71.5296 57.024 71.3596C56.719 71.1846 56.3715 71.0971 55.9815 71.0971C55.5915 71.0971 55.2415 71.1846 54.9315 71.3596C54.6265 71.5296 54.3865 71.7721 54.2115 72.0871C54.0415 72.4021 53.9565 72.7771 53.9565 73.2121C53.9565 73.6471 54.044 74.0221 54.219 74.3371C54.394 74.6521 54.634 74.8971 54.939 75.0721C55.244 75.2421 55.5915 75.3271 55.9815 75.3271Z" fill="black"/>
<path d="M62.9296 76.9996V71.1796H60.6421V69.4246H67.3996V71.1796H65.1196V76.9996H62.9296Z" fill="black"/>
<path d="M68.5035 76.9996V69.4246H70.596V73.8946L74.1435 69.4246H76.0935V76.9996H73.9935V72.4696L70.4385 76.9996H68.5035Z" fill="black"/>
<path d="M77.9301 76.9996V69.4246H85.4976V76.9996H83.3076V71.1796H80.1201V76.9996H77.9301Z" fill="black"/>
<path d="M31.8091 99.1946C31.1807 99.1946 30.6174 99.0451 30.1191 98.7461C29.6251 98.4428 29.2351 98.0398 28.9491 97.5371C28.6631 97.0344 28.5201 96.4819 28.5201 95.8796C28.5201 95.4289 28.6024 95.0043 28.7671 94.6056C28.9317 94.2026 29.1614 93.8494 29.4561 93.5461C29.7551 93.2384 30.1039 92.9979 30.5026 92.8246C30.9012 92.6513 31.3367 92.5646 31.8091 92.5646C32.4374 92.5646 32.9986 92.7163 33.4926 93.0196C33.9909 93.3186 34.3831 93.7194 34.6691 94.2221C34.9551 94.7248 35.0981 95.2773 35.0981 95.8796C35.0981 96.3303 35.0157 96.7571 34.8511 97.1601C34.6864 97.5588 34.4567 97.9119 34.1621 98.2196C33.8674 98.5229 33.5186 98.7613 33.1156 98.9346C32.7169 99.1079 32.2814 99.1946 31.8091 99.1946ZM31.8091 98.4926C32.2987 98.4926 32.7321 98.3864 33.1091 98.1741C33.4861 97.9574 33.7807 97.6541 33.9931 97.2641C34.2097 96.8741 34.3181 96.4126 34.3181 95.8796C34.3181 95.3466 34.2097 94.8851 33.9931 94.4951C33.7807 94.1008 33.4861 93.7974 33.1091 93.5851C32.7321 93.3728 32.2987 93.2666 31.8091 93.2666C31.3194 93.2666 30.8861 93.3728 30.5091 93.5851C30.1321 93.7974 29.8352 94.1008 29.6186 94.4951C29.4062 94.8851 29.3001 95.3466 29.3001 95.8796C29.3001 96.4126 29.4062 96.8741 29.6186 97.2641C29.8352 97.6541 30.1321 97.9574 30.5091 98.1741C30.8861 98.3864 31.3194 98.4926 31.8091 98.4926Z" fill="black"/>
<path d="M38.0222 98.9996V93.4356H35.6952V92.7596H41.0772V93.4356H38.7502V98.9996H38.0222Z" fill="black"/>
<path d="M42.2579 101.73V92.7596H42.9859V93.8126C43.2589 93.4529 43.6012 93.1561 44.0129 92.9221C44.4246 92.6838 44.9619 92.5646 45.6249 92.5646C46.2532 92.5646 46.8036 92.7163 47.2759 93.0196C47.7526 93.3186 48.1231 93.7194 48.3874 94.2221C48.6517 94.7248 48.7839 95.2773 48.7839 95.8796C48.7839 96.3303 48.7081 96.7571 48.5564 97.1601C48.4047 97.5588 48.1881 97.9119 47.9064 98.2196C47.6291 98.5229 47.2976 98.7613 46.9119 98.9346C46.5262 99.1079 46.0972 99.1946 45.6249 99.1946C45.0096 99.1946 44.4831 99.0754 44.0454 98.8371C43.6121 98.5988 43.2589 98.2889 42.9859 97.9076V101.73H42.2579ZM45.4949 98.4926C45.9846 98.4926 46.4179 98.3864 46.7949 98.1741C47.1719 97.9574 47.4666 97.6541 47.6789 97.2641C47.8956 96.8741 48.0039 96.4126 48.0039 95.8796C48.0039 95.3466 47.8956 94.8851 47.6789 94.4951C47.4666 94.1008 47.1719 93.7974 46.7949 93.5851C46.4179 93.3728 45.9846 93.2666 45.4949 93.2666C45.0052 93.2666 44.5719 93.3728 44.1949 93.5851C43.8179 93.7974 43.5211 94.1008 43.3044 94.4951C43.0921 94.8851 42.9859 95.3466 42.9859 95.8796C42.9859 96.4126 43.0921 96.8741 43.3044 97.2641C43.5211 97.6541 43.8179 97.9574 44.1949 98.1741C44.5719 98.3864 45.0052 98.4926 45.4949 98.4926Z" fill="black"/>
<path d="M50.1483 98.9996V92.7596H50.8763V97.8036L55.0103 92.7596H55.5953V98.9996H54.8673V93.9036L50.6943 98.9996H50.1483Z" fill="black"/>
<path d="M60.2996 99.1946C59.6452 99.1946 59.0667 99.0516 58.5641 98.7656C58.0614 98.4753 57.6671 98.0809 57.3811 97.5826C57.0994 97.0843 56.9586 96.5166 56.9586 95.8796C56.9586 95.3943 57.0431 94.9501 57.2121 94.5471C57.3811 94.1441 57.6194 93.7953 57.9271 93.5006C58.2391 93.2016 58.6052 92.9719 59.0256 92.8116C59.4459 92.6469 59.9052 92.5646 60.4036 92.5646C60.7762 92.5646 61.1186 92.6123 61.4306 92.7076C61.7426 92.7986 62.0372 92.9459 62.3146 93.1496L61.8726 93.7476C61.6862 93.5916 61.4609 93.4724 61.1966 93.3901C60.9322 93.3078 60.6506 93.2666 60.3516 93.2666C59.8186 93.2666 59.3571 93.3706 58.9671 93.5786C58.5771 93.7823 58.2737 94.0791 58.0571 94.4691C57.8447 94.8548 57.7386 95.3206 57.7386 95.8666C57.7386 96.6856 57.9726 97.3291 58.4406 97.7971C58.9086 98.2608 59.5412 98.4926 60.3386 98.4926C60.6766 98.4926 60.9907 98.4319 61.2811 98.3106C61.5757 98.1893 61.8032 98.0419 61.9636 97.8686L62.4576 98.4276C62.1412 98.6659 61.8032 98.8544 61.4436 98.9931C61.0839 99.1274 60.7026 99.1946 60.2996 99.1946Z" fill="black"/>
<path d="M66.2971 99.1946C65.6688 99.1946 65.1055 99.0451 64.6071 98.7461C64.1131 98.4428 63.7231 98.0398 63.4371 97.5371C63.1511 97.0344 63.0081 96.4819 63.0081 95.8796C63.0081 95.4289 63.0905 95.0043 63.2551 94.6056C63.4198 94.2026 63.6495 93.8494 63.9441 93.5461C64.2431 93.2384 64.592 92.9979 64.9906 92.8246C65.3893 92.6513 65.8248 92.5646 66.2971 92.5646C66.9255 92.5646 67.4866 92.7163 67.9806 93.0196C68.479 93.3186 68.8711 93.7194 69.1571 94.2221C69.4431 94.7248 69.5861 95.2773 69.5861 95.8796C69.5861 96.3303 69.5038 96.7571 69.3391 97.1601C69.1745 97.5588 68.9448 97.9119 68.6501 98.2196C68.3555 98.5229 68.0066 98.7613 67.6036 98.9346C67.205 99.1079 66.7695 99.1946 66.2971 99.1946ZM66.2971 98.4926C66.7868 98.4926 67.2201 98.3864 67.5971 98.1741C67.9741 97.9574 68.2688 97.6541 68.4811 97.2641C68.6978 96.8741 68.8061 96.4126 68.8061 95.8796C68.8061 95.3466 68.6978 94.8851 68.4811 94.4951C68.2688 94.1008 67.9741 93.7974 67.5971 93.5851C67.2201 93.3728 66.7868 93.2666 66.2971 93.2666C65.8075 93.2666 65.3741 93.3728 64.9971 93.5851C64.6201 93.7974 64.3233 94.1008 64.1066 94.4951C63.8943 94.8851 63.7881 95.3466 63.7881 95.8796C63.7881 96.4126 63.8943 96.8741 64.1066 97.2641C64.3233 97.6541 64.6201 97.9574 64.9971 98.1741C65.3741 98.3864 65.8075 98.4926 66.2971 98.4926Z" fill="black"/>
<path d="M70.9503 98.9996V92.7596H73.6023C74.274 92.7596 74.8243 92.8983 75.2533 93.1756C75.6867 93.4486 75.9033 93.8516 75.9033 94.3846C75.9033 94.5926 75.8578 94.7898 75.7668 94.9761C75.6758 95.1624 75.5415 95.3271 75.3638 95.4701C75.1905 95.6088 74.976 95.7149 74.7203 95.7886L74.7073 95.6326C75.197 95.7366 75.561 95.9294 75.7993 96.2111C76.042 96.4928 76.1633 96.8329 76.1633 97.2316C76.1633 97.5956 76.0658 97.9098 75.8708 98.1741C75.6758 98.4384 75.3985 98.6421 75.0388 98.7851C74.6835 98.9281 74.2653 98.9996 73.7843 98.9996H70.9503ZM71.6783 98.3236H73.6803C74.235 98.3236 74.6662 98.2348 74.9738 98.0571C75.2815 97.8751 75.4353 97.5999 75.4353 97.2316C75.4353 96.8589 75.2815 96.5838 74.9738 96.4061C74.6662 96.2284 74.235 96.1396 73.6803 96.1396H71.5093V95.4636H73.5373C74.0573 95.4636 74.4603 95.3856 74.7463 95.2296C75.0323 95.0736 75.1753 94.8136 75.1753 94.4496C75.1753 94.0856 75.0345 93.8256 74.7528 93.6696C74.4712 93.5136 74.066 93.4356 73.5373 93.4356H71.6783V98.3236Z" fill="black"/>
<path d="M82.0383 98.9996L79.8413 95.6326L81.6743 92.7596H82.4803L80.6473 95.6066L82.9483 98.9996H82.0383ZM77.7743 98.9996V92.7596H78.5023V95.3336H80.3483V96.0096H78.5023V98.9996H77.7743Z" fill="black"/>
<path d="M86.7434 99.1946C86.0934 99.1946 85.5214 99.0451 85.0274 98.7461C84.5377 98.4428 84.1542 98.0398 83.8769 97.5371C83.6039 97.0344 83.4674 96.4819 83.4674 95.8796C83.4674 95.4289 83.5454 95.0043 83.7014 94.6056C83.8617 94.2026 84.0849 93.8494 84.3709 93.5461C84.6612 93.2384 85.0079 92.9979 85.4109 92.8246C85.8139 92.6513 86.2581 92.5646 86.7434 92.5646C87.4021 92.5646 87.9394 92.7011 88.3554 92.9741C88.7757 93.2428 89.1181 93.5786 89.3824 93.9816L89.2654 94.1376V92.7596H89.9934V98.9996H89.2654V97.6216L89.3824 97.7776C89.1181 98.1806 88.7757 98.5186 88.3554 98.7916C87.9394 99.0603 87.4021 99.1946 86.7434 99.1946ZM86.7564 98.4926C87.2461 98.4926 87.6794 98.3864 88.0564 98.1741C88.4334 97.9574 88.7281 97.6541 88.9404 97.2641C89.1571 96.8741 89.2654 96.4126 89.2654 95.8796C89.2654 95.3466 89.1571 94.8851 88.9404 94.4951C88.7281 94.1008 88.4334 93.7974 88.0564 93.5851C87.6794 93.3728 87.2461 93.2666 86.7564 93.2666C86.2667 93.2666 85.8334 93.3728 85.4564 93.5851C85.0794 93.7974 84.7826 94.1008 84.5659 94.4951C84.3536 94.8851 84.2474 95.3466 84.2474 95.8796C84.2474 96.4126 84.3536 96.8741 84.5659 97.2641C84.7826 97.6541 85.0794 97.9574 85.4564 98.1741C85.8334 98.3864 86.2667 98.4926 86.7564 98.4926Z" fill="black"/>
<path d="M94.5918 99.0646L94.2797 98.3626C94.7217 98.2499 95.0446 98.0614 95.2482 97.7971C95.4562 97.5284 95.5884 97.1449 95.6447 96.6466C95.7054 96.1483 95.7357 95.4939 95.7357 94.6836V92.7596H100.351V98.9996H99.6227V93.4356H96.4637V94.6836C96.4637 95.3856 96.4377 95.9879 96.3857 96.4906C96.3381 96.9889 96.2471 97.4071 96.1127 97.7451C95.9827 98.0831 95.7942 98.3583 95.5472 98.5706C95.3046 98.7786 94.9861 98.9433 94.5918 99.0646Z" fill="black"/>
<path d="M105.007 99.1946C104.378 99.1946 103.815 99.0451 103.317 98.7461C102.823 98.4428 102.433 98.0398 102.147 97.5371C101.861 97.0344 101.718 96.4819 101.718 95.8796C101.718 95.4289 101.8 95.0043 101.965 94.6056C102.129 94.2026 102.359 93.8494 102.654 93.5461C102.953 93.2384 103.302 92.9979 103.7 92.8246C104.099 92.6513 104.534 92.5646 105.007 92.5646C105.635 92.5646 106.196 92.7163 106.69 93.0196C107.189 93.3186 107.581 93.7194 107.867 94.2221C108.153 94.7248 108.296 95.2773 108.296 95.8796C108.296 96.3303 108.213 96.7571 108.049 97.1601C107.884 97.5588 107.654 97.9119 107.36 98.2196C107.065 98.5229 106.716 98.7613 106.313 98.9346C105.915 99.1079 105.479 99.1946 105.007 99.1946ZM105.007 98.4926C105.496 98.4926 105.93 98.3864 106.307 98.1741C106.684 97.9574 106.978 97.6541 107.191 97.2641C107.407 96.8741 107.516 96.4126 107.516 95.8796C107.516 95.3466 107.407 94.8851 107.191 94.4951C106.978 94.1008 106.684 93.7974 106.307 93.5851C105.93 93.3728 105.496 93.2666 105.007 93.2666C104.517 93.2666 104.084 93.3728 103.707 93.5851C103.33 93.7974 103.033 94.1008 102.816 94.4951C102.604 94.8851 102.498 95.3466 102.498 95.8796C102.498 96.4126 102.604 96.8741 102.816 97.2641C103.033 97.6541 103.33 97.9574 103.707 98.1741C104.084 98.3864 104.517 98.4926 105.007 98.4926Z" fill="black"/>
<path d="M109.66 98.9996V92.7596H113.573V93.4356H110.388V98.9996H109.66Z" fill="black"/>
<path d="M117.499 99.1946C116.871 99.1946 116.308 99.0451 115.809 98.7461C115.315 98.4428 114.925 98.0398 114.639 97.5371C114.353 97.0344 114.21 96.4819 114.21 95.8796C114.21 95.4289 114.293 95.0043 114.457 94.6056C114.622 94.2026 114.852 93.8494 115.146 93.5461C115.445 93.2384 115.794 92.9979 116.193 92.8246C116.592 92.6513 117.027 92.5646 117.499 92.5646C118.128 92.5646 118.689 92.7163 119.183 93.0196C119.681 93.3186 120.073 93.7194 120.359 94.2221C120.645 94.7248 120.788 95.2773 120.788 95.8796C120.788 96.3303 120.706 96.7571 120.541 97.1601C120.377 97.5588 120.147 97.9119 119.852 98.2196C119.558 98.5229 119.209 98.7613 118.806 98.9346C118.407 99.1079 117.972 99.1946 117.499 99.1946ZM117.499 98.4926C117.989 98.4926 118.422 98.3864 118.799 98.1741C119.176 97.9574 119.471 97.6541 119.683 97.2641C119.9 96.8741 120.008 96.4126 120.008 95.8796C120.008 95.3466 119.9 94.8851 119.683 94.4951C119.471 94.1008 119.176 93.7974 118.799 93.5851C118.422 93.3728 117.989 93.2666 117.499 93.2666C117.01 93.2666 116.576 93.3728 116.199 93.5851C115.822 93.7974 115.526 94.1008 115.309 94.4951C115.097 94.8851 114.99 95.3466 114.99 95.8796C114.99 96.4126 115.097 96.8741 115.309 97.2641C115.526 97.6541 115.822 97.9574 116.199 98.1741C116.576 98.3864 117.01 98.4926 117.499 98.4926Z" fill="black"/>
<path d="M123.713 98.9996V93.4356H121.386V92.7596H126.768V93.4356H124.441V98.9996H123.713Z" fill="black"/>
<path d="M127.948 98.9996V92.7596H128.676V97.8036L132.81 92.7596H133.395V98.9996H132.667V93.9036L128.494 98.9996H127.948Z" fill="black"/>
<path d="M135.343 98.9996V92.7596H140.699V98.9996H139.971V93.4356H136.071V98.9996H135.343Z" fill="black"/>
<path d="M145.341 99.1946C144.691 99.1946 144.119 99.0451 143.625 98.7461C143.135 98.4428 142.752 98.0398 142.474 97.5371C142.201 97.0344 142.065 96.4819 142.065 95.8796C142.065 95.4289 142.143 95.0043 142.299 94.6056C142.459 94.2026 142.682 93.8494 142.968 93.5461C143.259 93.2384 143.605 92.9979 144.008 92.8246C144.411 92.6513 144.856 92.5646 145.341 92.5646C146 92.5646 146.537 92.7011 146.953 92.9741C147.373 93.2428 147.716 93.5786 147.98 93.9816L147.863 94.1376V92.7596H148.591V98.9996H147.863V97.6216L147.98 97.7776C147.716 98.1806 147.373 98.5186 146.953 98.7916C146.537 99.0603 146 99.1946 145.341 99.1946ZM145.354 98.4926C145.844 98.4926 146.277 98.3864 146.654 98.1741C147.031 97.9574 147.326 97.6541 147.538 97.2641C147.755 96.8741 147.863 96.4126 147.863 95.8796C147.863 95.3466 147.755 94.8851 147.538 94.4951C147.326 94.1008 147.031 93.7974 146.654 93.5851C146.277 93.3728 145.844 93.2666 145.354 93.2666C144.864 93.2666 144.431 93.3728 144.054 93.5851C143.677 93.7974 143.38 94.1008 143.163 94.4951C142.951 94.8851 142.845 95.3466 142.845 95.8796C142.845 96.4126 142.951 96.8741 143.163 97.2641C143.38 97.6541 143.677 97.9574 144.054 98.1741C144.431 98.3864 144.864 98.4926 145.354 98.4926Z" fill="black"/>
<path d="M29.1051 115V108.76H31.7571C32.4287 108.76 32.9791 108.898 33.4081 109.176C33.8414 109.449 34.0581 109.852 34.0581 110.385C34.0581 110.593 34.0126 110.79 33.9216 110.976C33.8306 111.162 33.6962 111.327 33.5186 111.47C33.3452 111.609 33.1307 111.715 32.8751 111.789L32.8621 111.633C33.3517 111.737 33.7157 111.929 33.9541 112.211C34.1967 112.493 34.3181 112.833 34.3181 113.232C34.3181 113.596 34.2206 113.91 34.0256 114.174C33.8306 114.438 33.5532 114.642 33.1936 114.785C32.8382 114.928 32.4201 115 31.9391 115H29.1051ZM29.8331 114.324H31.8351C32.3897 114.324 32.8209 114.235 33.1286 114.057C33.4362 113.875 33.5901 113.6 33.5901 113.232C33.5901 112.859 33.4362 112.584 33.1286 112.406C32.8209 112.228 32.3897 112.14 31.8351 112.14H29.6641V111.464H31.6921C32.2121 111.464 32.6151 111.386 32.9011 111.23C33.1871 111.074 33.3301 110.814 33.3301 110.45C33.3301 110.086 33.1892 109.826 32.9076 109.67C32.6259 109.514 32.2207 109.436 31.6921 109.436H29.8331V114.324Z" fill="black"/>
<path d="M39.046 115V108.76H41.698C42.3697 108.76 42.92 108.898 43.349 109.176C43.7823 109.449 43.999 109.852 43.999 110.385C43.999 110.593 43.9535 110.79 43.8625 110.976C43.7715 111.162 43.6372 111.327 43.4595 111.47C43.2862 111.609 43.0717 111.715 42.816 111.789L42.803 111.633C43.2927 111.737 43.6567 111.929 43.895 112.211C44.1377 112.493 44.259 112.833 44.259 113.232C44.259 113.596 44.1615 113.91 43.9665 114.174C43.7715 114.438 43.4942 114.642 43.1345 114.785C42.7792 114.928 42.361 115 41.88 115H39.046ZM39.774 114.324H41.776C42.3307 114.324 42.7618 114.235 43.0695 114.057C43.3772 113.875 43.531 113.6 43.531 113.232C43.531 112.859 43.3772 112.584 43.0695 112.406C42.7618 112.228 42.3307 112.14 41.776 112.14H39.605V111.464H41.633C42.153 111.464 42.556 111.386 42.842 111.23C43.128 111.074 43.271 110.814 43.271 110.45C43.271 110.086 43.1302 109.826 42.8485 109.67C42.5668 109.514 42.1617 109.436 41.633 109.436H39.774V114.324Z" fill="black"/>
<path d="M48.6 115.195C47.95 115.195 47.3758 115.058 46.8775 114.785C46.3791 114.508 45.9891 114.122 45.7075 113.628C45.4258 113.134 45.285 112.56 45.285 111.906C45.285 111.429 45.3651 110.987 45.5255 110.58C45.6858 110.172 45.9111 109.819 46.2015 109.52C46.4918 109.217 46.8298 108.983 47.2155 108.818C47.6055 108.649 48.028 108.565 48.483 108.565C48.964 108.565 49.393 108.651 49.77 108.825C50.1513 108.994 50.4676 109.232 50.719 109.54C50.9746 109.847 51.161 110.207 51.278 110.619C51.395 111.03 51.4296 111.477 51.382 111.958H46.091C46.065 112.465 46.1538 112.909 46.3575 113.29C46.5611 113.667 46.8623 113.962 47.261 114.174C47.6596 114.386 48.1363 114.493 48.691 114.493C49.0246 114.493 49.3561 114.434 49.6855 114.317C50.0191 114.196 50.303 114.025 50.537 113.804L50.9595 114.415C50.7471 114.592 50.5088 114.74 50.2445 114.857C49.9801 114.974 49.7071 115.058 49.4255 115.11C49.1481 115.166 48.873 115.195 48.6 115.195ZM46.117 111.282H50.602C50.576 110.645 50.3853 110.151 50.03 109.8C49.6746 109.444 49.159 109.267 48.483 109.267C47.8286 109.267 47.2891 109.444 46.8645 109.8C46.4398 110.151 46.1906 110.645 46.117 111.282Z" fill="black"/>
<path d="M57.0341 115L54.8371 111.633L56.6701 108.76H57.4761L55.6431 111.607L57.9441 115H57.0341ZM52.7701 115V108.76H53.4981V111.334H55.3441V112.01H53.4981V115H52.7701Z" fill="black"/>
<path d="M60.7352 115V109.436H58.4082V108.76H63.7902V109.436H61.4632V115H60.7352Z" fill="black"/>
<path d="M67.6748 115.195C67.0465 115.195 66.4832 115.045 65.9848 114.746C65.4908 114.443 65.1008 114.04 64.8148 113.537C64.5288 113.034 64.3858 112.482 64.3858 111.88C64.3858 111.429 64.4682 111.004 64.6328 110.606C64.7975 110.203 65.0272 109.849 65.3218 109.546C65.6208 109.238 65.9697 108.998 66.3683 108.825C66.767 108.651 67.2025 108.565 67.6748 108.565C68.3032 108.565 68.8643 108.716 69.3583 109.02C69.8567 109.319 70.2488 109.719 70.5348 110.222C70.8208 110.725 70.9638 111.277 70.9638 111.88C70.9638 112.33 70.8815 112.757 70.7168 113.16C70.5522 113.559 70.3225 113.912 70.0278 114.22C69.7332 114.523 69.3843 114.761 68.9813 114.935C68.5827 115.108 68.1472 115.195 67.6748 115.195ZM67.6748 114.493C68.1645 114.493 68.5978 114.386 68.9748 114.174C69.3518 113.957 69.6465 113.654 69.8588 113.264C70.0755 112.874 70.1838 112.413 70.1838 111.88C70.1838 111.347 70.0755 110.885 69.8588 110.495C69.6465 110.101 69.3518 109.797 68.9748 109.585C68.5978 109.373 68.1645 109.267 67.6748 109.267C67.1852 109.267 66.7518 109.373 66.3748 109.585C65.9978 109.797 65.701 110.101 65.4843 110.495C65.272 110.885 65.1658 111.347 65.1658 111.88C65.1658 112.413 65.272 112.874 65.4843 113.264C65.701 113.654 65.9978 113.957 66.3748 114.174C66.7518 114.386 67.1852 114.493 67.6748 114.493Z" fill="black"/>
<path d="M72.328 117.73V108.76H73.056V109.813C73.329 109.453 73.6714 109.156 74.083 108.922C74.4947 108.684 75.032 108.565 75.695 108.565C76.3234 108.565 76.8737 108.716 77.346 109.02C77.8227 109.319 78.1932 109.719 78.4575 110.222C78.7219 110.725 78.854 111.277 78.854 111.88C78.854 112.33 78.7782 112.757 78.6265 113.16C78.4749 113.559 78.2582 113.912 77.9765 114.22C77.6992 114.523 77.3677 114.761 76.982 114.935C76.5964 115.108 76.1674 115.195 75.695 115.195C75.0797 115.195 74.5532 115.075 74.1155 114.837C73.6822 114.599 73.329 114.289 73.056 113.908V117.73H72.328ZM75.565 114.493C76.0547 114.493 76.488 114.386 76.865 114.174C77.242 113.957 77.5367 113.654 77.749 113.264C77.9657 112.874 78.074 112.413 78.074 111.88C78.074 111.347 77.9657 110.885 77.749 110.495C77.5367 110.101 77.242 109.797 76.865 109.585C76.488 109.373 76.0547 109.267 75.565 109.267C75.0754 109.267 74.642 109.373 74.265 109.585C73.888 109.797 73.5912 110.101 73.3745 110.495C73.1622 110.885 73.056 111.347 73.056 111.88C73.056 112.413 73.1622 112.874 73.3745 113.264C73.5912 113.654 73.888 113.957 74.265 114.174C74.642 114.386 75.0754 114.493 75.565 114.493Z" fill="black"/>
<path d="M83.0119 115.195C82.3619 115.195 81.7877 115.058 81.2894 114.785C80.7911 114.508 80.4011 114.122 80.1194 113.628C79.8377 113.134 79.6969 112.56 79.6969 111.906C79.6969 111.429 79.7771 110.987 79.9374 110.58C80.0977 110.172 80.3231 109.819 80.6134 109.52C80.9037 109.217 81.2417 108.983 81.6274 108.818C82.0174 108.649 82.4399 108.565 82.8949 108.565C83.3759 108.565 83.8049 108.651 84.1819 108.825C84.5632 108.994 84.8796 109.232 85.1309 109.54C85.3866 109.847 85.5729 110.207 85.6899 110.619C85.8069 111.03 85.8416 111.477 85.7939 111.958H80.5029C80.4769 112.465 80.5657 112.909 80.7694 113.29C80.9731 113.667 81.2742 113.962 81.6729 114.174C82.0716 114.386 82.5482 114.493 83.1029 114.493C83.4366 114.493 83.7681 114.434 84.0974 114.317C84.4311 114.196 84.7149 114.025 84.9489 113.804L85.3714 114.415C85.1591 114.592 84.9207 114.74 84.6564 114.857C84.3921 114.974 84.1191 115.058 83.8374 115.11C83.5601 115.166 83.2849 115.195 83.0119 115.195ZM80.5289 111.282H85.0139C84.9879 110.645 84.7972 110.151 84.4419 109.8C84.0866 109.444 83.5709 109.267 82.8949 109.267C82.2406 109.267 81.7011 109.444 81.2764 109.8C80.8517 110.151 80.6026 110.645 80.5289 111.282Z" fill="black"/>
<path d="M31.3951 40.2246C30.6701 40.2246 30.0201 40.0521 29.4451 39.7071C28.8751 39.3571 28.4251 38.8921 28.0951 38.3121C27.7651 37.7321 27.6001 37.0946 27.6001 36.3996C27.6001 35.8796 27.6951 35.3896 27.8851 34.9296C28.0751 34.4646 28.3401 34.0571 28.6801 33.7071C29.0251 33.3521 29.4276 33.0746 29.8876 32.8746C30.3476 32.6746 30.8501 32.5746 31.3951 32.5746C32.1201 32.5746 32.7676 32.7496 33.3376 33.0996C33.9126 33.4446 34.3651 33.9071 34.6951 34.4871C35.0251 35.0671 35.1901 35.7046 35.1901 36.3996C35.1901 36.9196 35.0951 37.4121 34.9051 37.8771C34.7151 38.3371 34.4501 38.7446 34.1101 39.0996C33.7701 39.4496 33.3676 39.7246 32.9026 39.9246C32.4426 40.1246 31.9401 40.2246 31.3951 40.2246ZM31.3951 39.4146C31.9601 39.4146 32.4601 39.2921 32.8951 39.0471C33.3301 38.7971 33.6701 38.4471 33.9151 37.9971C34.1651 37.5471 34.2901 37.0146 34.2901 36.3996C34.2901 35.7846 34.1651 35.2521 33.9151 34.8021C33.6701 34.3471 33.3301 33.9971 32.8951 33.7521C32.4601 33.5071 31.9601 33.3846 31.3951 33.3846C30.8301 33.3846 30.3301 33.5071 29.8951 33.7521C29.4601 33.9971 29.1176 34.3471 28.8676 34.8021C28.6226 35.2521 28.5001 35.7846 28.5001 36.3996C28.5001 37.0146 28.6226 37.5471 28.8676 37.9971C29.1176 38.4471 29.4601 38.7971 29.8951 39.0471C30.3301 39.2921 30.8301 39.4146 31.3951 39.4146Z" fill="black"/>
<path d="M38.5641 39.9996V33.5796H35.8791V32.7996H42.0891V33.5796H39.4041V39.9996H38.5641Z" fill="black"/>
<path d="M49.2379 39.9996V30.3396L46.1779 31.4946L45.9529 30.8346L50.0029 29.2746H50.0779V39.9996H49.2379Z" fill="black"/>
<path d="M56.6363 40.2246C56.0013 40.2246 55.4263 40.0821 54.9113 39.7971C54.4013 39.5121 53.9638 39.1171 53.5988 38.6121C53.2388 38.1071 52.9613 37.5246 52.7663 36.8646C52.5763 36.2046 52.4813 35.4996 52.4813 34.7496C52.4813 33.9946 52.5763 33.2871 52.7663 32.6271C52.9613 31.9671 53.2388 31.3871 53.5988 30.8871C53.9638 30.3821 54.4013 29.9871 54.9113 29.7021C55.4263 29.4171 56.0013 29.2746 56.6363 29.2746C57.2663 29.2746 57.8363 29.4171 58.3463 29.7021C58.8563 29.9871 59.2938 30.3821 59.6588 30.8871C60.0238 31.3871 60.3038 31.9671 60.4988 32.6271C60.6938 33.2871 60.7913 33.9946 60.7913 34.7496C60.7913 35.4996 60.6938 36.2046 60.4988 36.8646C60.3038 37.5246 60.0238 38.1071 59.6588 38.6121C59.2938 39.1171 58.8563 39.5121 58.3463 39.7971C57.8363 40.0821 57.2663 40.2246 56.6363 40.2246ZM56.6363 39.3846C57.1163 39.3846 57.5538 39.2771 57.9488 39.0621C58.3438 38.8421 58.6838 38.5296 58.9688 38.1246C59.2538 37.7196 59.4738 37.2321 59.6288 36.6621C59.7838 36.0921 59.8613 35.4546 59.8613 34.7496C59.8613 33.8096 59.7263 32.9921 59.4563 32.2971C59.1863 31.6021 58.8088 31.0646 58.3238 30.6846C57.8388 30.3046 57.2763 30.1146 56.6363 30.1146C56.1563 30.1146 55.7188 30.2246 55.3238 30.4446C54.9288 30.6596 54.5888 30.9696 54.3038 31.3746C54.0188 31.7796 53.7988 32.2671 53.6438 32.8371C53.4888 33.4071 53.4113 34.0446 53.4113 34.7496C53.4113 35.6896 53.5463 36.5071 53.8163 37.2021C54.0863 37.8971 54.4638 38.4346 54.9488 38.8146C55.4338 39.1946 55.9963 39.3846 56.6363 39.3846Z" fill="black"/>
<path d="M66.4437 40.2246C65.8087 40.2246 65.2337 40.0821 64.7187 39.7971C64.2087 39.5121 63.7712 39.1171 63.4062 38.6121C63.0462 38.1071 62.7687 37.5246 62.5737 36.8646C62.3837 36.2046 62.2887 35.4996 62.2887 34.7496C62.2887 33.9946 62.3837 33.2871 62.5737 32.6271C62.7687 31.9671 63.0462 31.3871 63.4062 30.8871C63.7712 30.3821 64.2087 29.9871 64.7187 29.7021C65.2337 29.4171 65.8087 29.2746 66.4437 29.2746C67.0737 29.2746 67.6437 29.4171 68.1537 29.7021C68.6637 29.9871 69.1012 30.3821 69.4662 30.8871C69.8312 31.3871 70.1112 31.9671 70.3062 32.6271C70.5012 33.2871 70.5987 33.9946 70.5987 34.7496C70.5987 35.4996 70.5012 36.2046 70.3062 36.8646C70.1112 37.5246 69.8312 38.1071 69.4662 38.6121C69.1012 39.1171 68.6637 39.5121 68.1537 39.7971C67.6437 40.0821 67.0737 40.2246 66.4437 40.2246ZM66.4437 39.3846C66.9237 39.3846 67.3612 39.2771 67.7562 39.0621C68.1512 38.8421 68.4912 38.5296 68.7762 38.1246C69.0612 37.7196 69.2812 37.2321 69.4362 36.6621C69.5912 36.0921 69.6687 35.4546 69.6687 34.7496C69.6687 33.8096 69.5337 32.9921 69.2637 32.2971C68.9937 31.6021 68.6162 31.0646 68.1312 30.6846C67.6462 30.3046 67.0837 30.1146 66.4437 30.1146C65.9637 30.1146 65.5262 30.2246 65.1312 30.4446C64.7362 30.6596 64.3962 30.9696 64.1112 31.3746C63.8262 31.7796 63.6062 32.2671 63.4512 32.8371C63.2962 33.4071 63.2187 34.0446 63.2187 34.7496C63.2187 35.6896 63.3537 36.5071 63.6237 37.2021C63.8937 37.8971 64.2712 38.4346 64.7562 38.8146C65.2412 39.1946 65.8037 39.3846 66.4437 39.3846Z" fill="black"/>
<path d="M76.2512 40.2246C75.6162 40.2246 75.0412 40.0821 74.5262 39.7971C74.0162 39.5121 73.5787 39.1171 73.2137 38.6121C72.8537 38.1071 72.5762 37.5246 72.3812 36.8646C72.1912 36.2046 72.0962 35.4996 72.0962 34.7496C72.0962 33.9946 72.1912 33.2871 72.3812 32.6271C72.5762 31.9671 72.8537 31.3871 73.2137 30.8871C73.5787 30.3821 74.0162 29.9871 74.5262 29.7021C75.0412 29.4171 75.6162 29.2746 76.2512 29.2746C76.8812 29.2746 77.4512 29.4171 77.9612 29.7021C78.4712 29.9871 78.9087 30.3821 79.2737 30.8871C79.6387 31.3871 79.9187 31.9671 80.1137 32.6271C80.3087 33.2871 80.4062 33.9946 80.4062 34.7496C80.4062 35.4996 80.3087 36.2046 80.1137 36.8646C79.9187 37.5246 79.6387 38.1071 79.2737 38.6121C78.9087 39.1171 78.4712 39.5121 77.9612 39.7971C77.4512 40.0821 76.8812 40.2246 76.2512 40.2246ZM76.2512 39.3846C76.7312 39.3846 77.1687 39.2771 77.5637 39.0621C77.9587 38.8421 78.2987 38.5296 78.5837 38.1246C78.8687 37.7196 79.0887 37.2321 79.2437 36.6621C79.3987 36.0921 79.4762 35.4546 79.4762 34.7496C79.4762 33.8096 79.3412 32.9921 79.0712 32.2971C78.8012 31.6021 78.4237 31.0646 77.9387 30.6846C77.4537 30.3046 76.8912 30.1146 76.2512 30.1146C75.7712 30.1146 75.3337 30.2246 74.9387 30.4446C74.5437 30.6596 74.2037 30.9696 73.9187 31.3746C73.6337 31.7796 73.4137 32.2671 73.2587 32.8371C73.1037 33.4071 73.0262 34.0446 73.0262 34.7496C73.0262 35.6896 73.1612 36.5071 73.4312 37.2021C73.7012 37.8971 74.0787 38.4346 74.5637 38.8146C75.0487 39.1946 75.6112 39.3846 76.2512 39.3846Z" fill="black"/>
<path d="M85.8751 43.1496V32.7996H86.7151V34.0146C87.0301 33.5996 87.4251 33.2571 87.9001 32.9871C88.3751 32.7121 88.9951 32.5746 89.7601 32.5746C90.4851 32.5746 91.1201 32.7496 91.6651 33.0996C92.2151 33.4446 92.6426 33.9071 92.9476 34.4871C93.2526 35.0671 93.4051 35.7046 93.4051 36.3996C93.4051 36.9196 93.3176 37.4121 93.1426 37.8771C92.9676 38.3371 92.7176 38.7446 92.3926 39.0996C92.0726 39.4496 91.6901 39.7246 91.2451 39.9246C90.8001 40.1246 90.3051 40.2246 89.7601 40.2246C89.0501 40.2246 88.4426 40.0871 87.9376 39.8121C87.4376 39.5371 87.0301 39.1796 86.7151 38.7396V43.1496H85.8751ZM89.6101 39.4146C90.1751 39.4146 90.6751 39.2921 91.1101 39.0471C91.5451 38.7971 91.8851 38.4471 92.1301 37.9971C92.3801 37.5471 92.5051 37.0146 92.5051 36.3996C92.5051 35.7846 92.3801 35.2521 92.1301 34.8021C91.8851 34.3471 91.5451 33.9971 91.1101 33.7521C90.6751 33.5071 90.1751 33.3846 89.6101 33.3846C89.0451 33.3846 88.5451 33.5071 88.1101 33.7521C87.6751 33.9971 87.3326 34.3471 87.0826 34.8021C86.8376 35.2521 86.7151 35.7846 86.7151 36.3996C86.7151 37.0146 86.8376 37.5471 87.0826 37.9971C87.3326 38.4471 87.6751 38.7971 88.1101 39.0471C88.5451 39.2921 89.0451 39.4146 89.6101 39.4146Z" fill="black"/>
<path d="M95.0411 43.3746C94.8561 43.3746 94.6686 43.3496 94.4786 43.2996C94.2936 43.2496 94.0911 43.1546 93.8711 43.0146L94.0961 42.2496C94.2461 42.3596 94.4061 42.4396 94.5761 42.4896C94.7511 42.5396 94.9011 42.5646 95.0261 42.5646C95.4461 42.5646 95.7611 42.4571 95.9711 42.2421C96.1811 42.0321 96.3611 41.7146 96.5111 41.2896L96.8861 40.2096L94.0061 32.7996H94.9511L97.3661 39.0696L99.7211 32.7996H100.621L97.3811 41.3796C97.1761 41.9196 96.9586 42.3321 96.7286 42.6171C96.5036 42.9071 96.2536 43.1046 95.9786 43.2096C95.7036 43.3196 95.3911 43.3746 95.0411 43.3746Z" fill="black"/>
<path d="M105.356 40.2246C104.751 40.2246 104.209 40.1246 103.729 39.9246C103.254 39.7196 102.849 39.4196 102.514 39.0246C102.184 38.6296 101.931 38.1446 101.756 37.5696C101.586 36.9896 101.501 36.3246 101.501 35.5746C101.501 34.7546 101.554 34.0171 101.659 33.3621C101.769 32.7071 101.946 32.1371 102.191 31.6521C102.441 31.1621 102.776 30.7596 103.196 30.4446C103.616 30.1246 104.136 29.8946 104.756 29.7546L108.206 28.9746L108.386 29.8146L105.041 30.5646C104.361 30.7196 103.834 30.9721 103.459 31.3221C103.084 31.6671 102.811 32.1021 102.641 32.6271C102.476 33.1471 102.366 33.7446 102.311 34.4196C102.626 33.8646 103.044 33.4196 103.564 33.0846C104.089 32.7446 104.721 32.5746 105.461 32.5746C106.166 32.5746 106.786 32.7496 107.321 33.0996C107.856 33.4446 108.274 33.9071 108.574 34.4871C108.879 35.0671 109.031 35.7046 109.031 36.3996C109.031 36.9196 108.944 37.4121 108.769 37.8771C108.594 38.3371 108.341 38.7446 108.011 39.0996C107.686 39.4496 107.299 39.7246 106.849 39.9246C106.404 40.1246 105.906 40.2246 105.356 40.2246ZM105.311 39.4146C105.861 39.4146 106.349 39.2921 106.774 39.0471C107.199 38.7971 107.531 38.4471 107.771 37.9971C108.011 37.5471 108.131 37.0146 108.131 36.3996C108.131 35.7846 108.011 35.2521 107.771 34.8021C107.531 34.3471 107.199 33.9971 106.774 33.7521C106.349 33.5071 105.861 33.3846 105.311 33.3846C104.761 33.3846 104.274 33.5071 103.849 33.7521C103.424 33.9971 103.091 34.3471 102.851 34.8021C102.611 35.2521 102.491 35.7846 102.491 36.3996C102.491 37.0146 102.611 37.5471 102.851 37.9971C103.091 38.4471 103.424 38.7971 103.849 39.0471C104.274 39.2921 104.761 39.4146 105.311 39.4146Z" fill="black"/>
<path d="M27.9751 77.1646L27.2476 75.2221C27.7626 75.0921 28.1376 74.8971 28.3726 74.6371C28.6076 74.3771 28.7551 74.0246 28.8151 73.5796C28.8801 73.1296 28.9126 72.5571 28.9126 71.8621V69.4246H35.4151V76.9996H33.2251V71.1796H30.9151V71.8621C30.9151 72.6421 30.8701 73.3321 30.7801 73.9321C30.6951 74.5321 30.5451 75.0496 30.3301 75.4846C30.1151 75.9146 29.8176 76.2671 29.4376 76.5421C29.0576 76.8171 28.5701 77.0246 27.9751 77.1646Z" stroke="black" stroke-width="0.4" mask="url(#path-2-outside-1_1702_1106)"/>
<path d="M40.8051 77.2246C39.9901 77.2246 39.2676 77.0421 38.6376 76.6771C38.0076 76.3121 37.5126 75.8271 37.1526 75.2221C36.7976 74.6121 36.6201 73.9421 36.6201 73.2121C36.6201 72.6771 36.7226 72.1696 36.9276 71.6896C37.1326 71.2046 37.4226 70.7771 37.7976 70.4071C38.1726 70.0321 38.6151 69.7371 39.1251 69.5221C39.6351 69.3071 40.1951 69.1996 40.8051 69.1996C41.6201 69.1996 42.3401 69.3821 42.9651 69.7471C43.5951 70.1121 44.0876 70.5996 44.4426 71.2096C44.8026 71.8146 44.9826 72.4821 44.9826 73.2121C44.9826 73.7421 44.8801 74.2496 44.6751 74.7346C44.4701 75.2196 44.1801 75.6496 43.8051 76.0246C43.4351 76.3946 42.9951 76.6871 42.4851 76.9021C41.9751 77.1171 41.4151 77.2246 40.8051 77.2246ZM40.8051 75.3271C41.1901 75.3271 41.5351 75.2421 41.8401 75.0721C42.1451 74.8971 42.3851 74.6521 42.5601 74.3371C42.7351 74.0171 42.8226 73.6421 42.8226 73.2121C42.8226 72.7771 42.7351 72.4021 42.5601 72.0871C42.3901 71.7721 42.1526 71.5296 41.8476 71.3596C41.5426 71.1846 41.1951 71.0971 40.8051 71.0971C40.4151 71.0971 40.0651 71.1846 39.7551 71.3596C39.4501 71.5296 39.2101 71.7721 39.0351 72.0871C38.8651 72.4021 38.7801 72.7771 38.7801 73.2121C38.7801 73.6471 38.8676 74.0221 39.0426 74.3371C39.2176 74.6521 39.4576 74.8971 39.7626 75.0721C40.0676 75.2421 40.4151 75.3271 40.8051 75.3271Z" stroke="black" stroke-width="0.4" mask="url(#path-2-outside-1_1702_1106)"/>
<path d="M46.1858 76.9996V69.4246H51.3158V71.1796H48.3758V76.9996H46.1858Z" stroke="black" stroke-width="0.4" mask="url(#path-2-outside-1_1702_1106)"/>
<path d="M55.9815 77.2246C55.1665 77.2246 54.444 77.0421 53.814 76.6771C53.184 76.3121 52.689 75.8271 52.329 75.2221C51.974 74.6121 51.7965 73.9421 51.7965 73.2121C51.7965 72.6771 51.899 72.1696 52.104 71.6896C52.309 71.2046 52.599 70.7771 52.974 70.4071C53.349 70.0321 53.7915 69.7371 54.3015 69.5221C54.8115 69.3071 55.3715 69.1996 55.9815 69.1996C56.7965 69.1996 57.5165 69.3821 58.1415 69.7471C58.7715 70.1121 59.264 70.5996 59.619 71.2096C59.979 71.8146 60.159 72.4821 60.159 73.2121C60.159 73.7421 60.0565 74.2496 59.8515 74.7346C59.6465 75.2196 59.3565 75.6496 58.9815 76.0246C58.6115 76.3946 58.1715 76.6871 57.6615 76.9021C57.1515 77.1171 56.5915 77.2246 55.9815 77.2246ZM55.9815 75.3271C56.3665 75.3271 56.7115 75.2421 57.0165 75.0721C57.3215 74.8971 57.5615 74.6521 57.7365 74.3371C57.9115 74.0171 57.999 73.6421 57.999 73.2121C57.999 72.7771 57.9115 72.4021 57.7365 72.0871C57.5665 71.7721 57.329 71.5296 57.024 71.3596C56.719 71.1846 56.3715 71.0971 55.9815 71.0971C55.5915 71.0971 55.2415 71.1846 54.9315 71.3596C54.6265 71.5296 54.3865 71.7721 54.2115 72.0871C54.0415 72.4021 53.9565 72.7771 53.9565 73.2121C53.9565 73.6471 54.044 74.0221 54.219 74.3371C54.394 74.6521 54.634 74.8971 54.939 75.0721C55.244 75.2421 55.5915 75.3271 55.9815 75.3271Z" stroke="black" stroke-width="0.4" mask="url(#path-2-outside-1_1702_1106)"/>
<path d="M62.9296 76.9996V71.1796H60.6421V69.4246H67.3996V71.1796H65.1196V76.9996H62.9296Z" stroke="black" stroke-width="0.4" mask="url(#path-2-outside-1_1702_1106)"/>
<path d="M68.5035 76.9996V69.4246H70.596V73.8946L74.1435 69.4246H76.0935V76.9996H73.9935V72.4696L70.4385 76.9996H68.5035Z" stroke="black" stroke-width="0.4" mask="url(#path-2-outside-1_1702_1106)"/>
<path d="M77.9301 76.9996V69.4246H85.4976V76.9996H83.3076V71.1796H80.1201V76.9996H77.9301Z" stroke="black" stroke-width="0.4" mask="url(#path-2-outside-1_1702_1106)"/>
<path d="M31.8091 99.1946C31.1807 99.1946 30.6174 99.0451 30.1191 98.7461C29.6251 98.4428 29.2351 98.0398 28.9491 97.5371C28.6631 97.0344 28.5201 96.4819 28.5201 95.8796C28.5201 95.4289 28.6024 95.0043 28.7671 94.6056C28.9317 94.2026 29.1614 93.8494 29.4561 93.5461C29.7551 93.2384 30.1039 92.9979 30.5026 92.8246C30.9012 92.6513 31.3367 92.5646 31.8091 92.5646C32.4374 92.5646 32.9986 92.7163 33.4926 93.0196C33.9909 93.3186 34.3831 93.7194 34.6691 94.2221C34.9551 94.7248 35.0981 95.2773 35.0981 95.8796C35.0981 96.3303 35.0157 96.7571 34.8511 97.1601C34.6864 97.5588 34.4567 97.9119 34.1621 98.2196C33.8674 98.5229 33.5186 98.7613 33.1156 98.9346C32.7169 99.1079 32.2814 99.1946 31.8091 99.1946ZM31.8091 98.4926C32.2987 98.4926 32.7321 98.3864 33.1091 98.1741C33.4861 97.9574 33.7807 97.6541 33.9931 97.2641C34.2097 96.8741 34.3181 96.4126 34.3181 95.8796C34.3181 95.3466 34.2097 94.8851 33.9931 94.4951C33.7807 94.1008 33.4861 93.7974 33.1091 93.5851C32.7321 93.3728 32.2987 93.2666 31.8091 93.2666C31.3194 93.2666 30.8861 93.3728 30.5091 93.5851C30.1321 93.7974 29.8352 94.1008 29.6186 94.4951C29.4062 94.8851 29.3001 95.3466 29.3001 95.8796C29.3001 96.4126 29.4062 96.8741 29.6186 97.2641C29.8352 97.6541 30.1321 97.9574 30.5091 98.1741C30.8861 98.3864 31.3194 98.4926 31.8091 98.4926Z" stroke="black" stroke-width="0.4" mask="url(#path-2-outside-1_1702_1106)"/>
<path d="M38.0222 98.9996V93.4356H35.6952V92.7596H41.0772V93.4356H38.7502V98.9996H38.0222Z" stroke="black" stroke-width="0.4" mask="url(#path-2-outside-1_1702_1106)"/>
<path d="M42.2579 101.73V92.7596H42.9859V93.8126C43.2589 93.4529 43.6012 93.1561 44.0129 92.9221C44.4246 92.6838 44.9619 92.5646 45.6249 92.5646C46.2532 92.5646 46.8036 92.7163 47.2759 93.0196C47.7526 93.3186 48.1231 93.7194 48.3874 94.2221C48.6517 94.7248 48.7839 95.2773 48.7839 95.8796C48.7839 96.3303 48.7081 96.7571 48.5564 97.1601C48.4047 97.5588 48.1881 97.9119 47.9064 98.2196C47.6291 98.5229 47.2976 98.7613 46.9119 98.9346C46.5262 99.1079 46.0972 99.1946 45.6249 99.1946C45.0096 99.1946 44.4831 99.0754 44.0454 98.8371C43.6121 98.5988 43.2589 98.2889 42.9859 97.9076V101.73H42.2579ZM45.4949 98.4926C45.9846 98.4926 46.4179 98.3864 46.7949 98.1741C47.1719 97.9574 47.4666 97.6541 47.6789 97.2641C47.8956 96.8741 48.0039 96.4126 48.0039 95.8796C48.0039 95.3466 47.8956 94.8851 47.6789 94.4951C47.4666 94.1008 47.1719 93.7974 46.7949 93.5851C46.4179 93.3728 45.9846 93.2666 45.4949 93.2666C45.0052 93.2666 44.5719 93.3728 44.1949 93.5851C43.8179 93.7974 43.5211 94.1008 43.3044 94.4951C43.0921 94.8851 42.9859 95.3466 42.9859 95.8796C42.9859 96.4126 43.0921 96.8741 43.3044 97.2641C43.5211 97.6541 43.8179 97.9574 44.1949 98.1741C44.5719 98.3864 45.0052 98.4926 45.4949 98.4926Z" stroke="black" stroke-width="0.4" mask="url(#path-2-outside-1_1702_1106)"/>
<path d="M50.1483 98.9996V92.7596H50.8763V97.8036L55.0103 92.7596H55.5953V98.9996H54.8673V93.9036L50.6943 98.9996H50.1483Z" stroke="black" stroke-width="0.4" mask="url(#path-2-outside-1_1702_1106)"/>
<path d="M60.2996 99.1946C59.6452 99.1946 59.0667 99.0516 58.5641 98.7656C58.0614 98.4753 57.6671 98.0809 57.3811 97.5826C57.0994 97.0843 56.9586 96.5166 56.9586 95.8796C56.9586 95.3943 57.0431 94.9501 57.2121 94.5471C57.3811 94.1441 57.6194 93.7953 57.9271 93.5006C58.2391 93.2016 58.6052 92.9719 59.0256 92.8116C59.4459 92.6469 59.9052 92.5646 60.4036 92.5646C60.7762 92.5646 61.1186 92.6123 61.4306 92.7076C61.7426 92.7986 62.0372 92.9459 62.3146 93.1496L61.8726 93.7476C61.6862 93.5916 61.4609 93.4724 61.1966 93.3901C60.9322 93.3078 60.6506 93.2666 60.3516 93.2666C59.8186 93.2666 59.3571 93.3706 58.9671 93.5786C58.5771 93.7823 58.2737 94.0791 58.0571 94.4691C57.8447 94.8548 57.7386 95.3206 57.7386 95.8666C57.7386 96.6856 57.9726 97.3291 58.4406 97.7971C58.9086 98.2608 59.5412 98.4926 60.3386 98.4926C60.6766 98.4926 60.9907 98.4319 61.2811 98.3106C61.5757 98.1893 61.8032 98.0419 61.9636 97.8686L62.4576 98.4276C62.1412 98.6659 61.8032 98.8544 61.4436 98.9931C61.0839 99.1274 60.7026 99.1946 60.2996 99.1946Z" stroke="black" stroke-width="0.4" mask="url(#path-2-outside-1_1702_1106)"/>
<path d="M66.2971 99.1946C65.6688 99.1946 65.1055 99.0451 64.6071 98.7461C64.1131 98.4428 63.7231 98.0398 63.4371 97.5371C63.1511 97.0344 63.0081 96.4819 63.0081 95.8796C63.0081 95.4289 63.0905 95.0043 63.2551 94.6056C63.4198 94.2026 63.6495 93.8494 63.9441 93.5461C64.2431 93.2384 64.592 92.9979 64.9906 92.8246C65.3893 92.6513 65.8248 92.5646 66.2971 92.5646C66.9255 92.5646 67.4866 92.7163 67.9806 93.0196C68.479 93.3186 68.8711 93.7194 69.1571 94.2221C69.4431 94.7248 69.5861 95.2773 69.5861 95.8796C69.5861 96.3303 69.5038 96.7571 69.3391 97.1601C69.1745 97.5588 68.9448 97.9119 68.6501 98.2196C68.3555 98.5229 68.0066 98.7613 67.6036 98.9346C67.205 99.1079 66.7695 99.1946 66.2971 99.1946ZM66.2971 98.4926C66.7868 98.4926 67.2201 98.3864 67.5971 98.1741C67.9741 97.9574 68.2688 97.6541 68.4811 97.2641C68.6978 96.8741 68.8061 96.4126 68.8061 95.8796C68.8061 95.3466 68.6978 94.8851 68.4811 94.4951C68.2688 94.1008 67.9741 93.7974 67.5971 93.5851C67.2201 93.3728 66.7868 93.2666 66.2971 93.2666C65.8075 93.2666 65.3741 93.3728 64.9971 93.5851C64.6201 93.7974 64.3233 94.1008 64.1066 94.4951C63.8943 94.8851 63.7881 95.3466 63.7881 95.8796C63.7881 96.4126 63.8943 96.8741 64.1066 97.2641C64.3233 97.6541 64.6201 97.9574 64.9971 98.1741C65.3741 98.3864 65.8075 98.4926 66.2971 98.4926Z" stroke="black" stroke-width="0.4" mask="url(#path-2-outside-1_1702_1106)"/>
<path d="M70.9503 98.9996V92.7596H73.6023C74.274 92.7596 74.8243 92.8983 75.2533 93.1756C75.6867 93.4486 75.9033 93.8516 75.9033 94.3846C75.9033 94.5926 75.8578 94.7898 75.7668 94.9761C75.6758 95.1624 75.5415 95.3271 75.3638 95.4701C75.1905 95.6088 74.976 95.7149 74.7203 95.7886L74.7073 95.6326C75.197 95.7366 75.561 95.9294 75.7993 96.2111C76.042 96.4928 76.1633 96.8329 76.1633 97.2316C76.1633 97.5956 76.0658 97.9098 75.8708 98.1741C75.6758 98.4384 75.3985 98.6421 75.0388 98.7851C74.6835 98.9281 74.2653 98.9996 73.7843 98.9996H70.9503ZM71.6783 98.3236H73.6803C74.235 98.3236 74.6662 98.2348 74.9738 98.0571C75.2815 97.8751 75.4353 97.5999 75.4353 97.2316C75.4353 96.8589 75.2815 96.5838 74.9738 96.4061C74.6662 96.2284 74.235 96.1396 73.6803 96.1396H71.5093V95.4636H73.5373C74.0573 95.4636 74.4603 95.3856 74.7463 95.2296C75.0323 95.0736 75.1753 94.8136 75.1753 94.4496C75.1753 94.0856 75.0345 93.8256 74.7528 93.6696C74.4712 93.5136 74.066 93.4356 73.5373 93.4356H71.6783V98.3236Z" stroke="black" stroke-width="0.4" mask="url(#path-2-outside-1_1702_1106)"/>
<path d="M82.0383 98.9996L79.8413 95.6326L81.6743 92.7596H82.4803L80.6473 95.6066L82.9483 98.9996H82.0383ZM77.7743 98.9996V92.7596H78.5023V95.3336H80.3483V96.0096H78.5023V98.9996H77.7743Z" stroke="black" stroke-width="0.4" mask="url(#path-2-outside-1_1702_1106)"/>
<path d="M86.7434 99.1946C86.0934 99.1946 85.5214 99.0451 85.0274 98.7461C84.5377 98.4428 84.1542 98.0398 83.8769 97.5371C83.6039 97.0344 83.4674 96.4819 83.4674 95.8796C83.4674 95.4289 83.5454 95.0043 83.7014 94.6056C83.8617 94.2026 84.0849 93.8494 84.3709 93.5461C84.6612 93.2384 85.0079 92.9979 85.4109 92.8246C85.8139 92.6513 86.2581 92.5646 86.7434 92.5646C87.4021 92.5646 87.9394 92.7011 88.3554 92.9741C88.7757 93.2428 89.1181 93.5786 89.3824 93.9816L89.2654 94.1376V92.7596H89.9934V98.9996H89.2654V97.6216L89.3824 97.7776C89.1181 98.1806 88.7757 98.5186 88.3554 98.7916C87.9394 99.0603 87.4021 99.1946 86.7434 99.1946ZM86.7564 98.4926C87.2461 98.4926 87.6794 98.3864 88.0564 98.1741C88.4334 97.9574 88.7281 97.6541 88.9404 97.2641C89.1571 96.8741 89.2654 96.4126 89.2654 95.8796C89.2654 95.3466 89.1571 94.8851 88.9404 94.4951C88.7281 94.1008 88.4334 93.7974 88.0564 93.5851C87.6794 93.3728 87.2461 93.2666 86.7564 93.2666C86.2667 93.2666 85.8334 93.3728 85.4564 93.5851C85.0794 93.7974 84.7826 94.1008 84.5659 94.4951C84.3536 94.8851 84.2474 95.3466 84.2474 95.8796C84.2474 96.4126 84.3536 96.8741 84.5659 97.2641C84.7826 97.6541 85.0794 97.9574 85.4564 98.1741C85.8334 98.3864 86.2667 98.4926 86.7564 98.4926Z" stroke="black" stroke-width="0.4" mask="url(#path-2-outside-1_1702_1106)"/>
<path d="M94.5918 99.0646L94.2797 98.3626C94.7217 98.2499 95.0446 98.0614 95.2482 97.7971C95.4562 97.5284 95.5884 97.1449 95.6447 96.6466C95.7054 96.1483 95.7357 95.4939 95.7357 94.6836V92.7596H100.351V98.9996H99.6227V93.4356H96.4637V94.6836C96.4637 95.3856 96.4377 95.9879 96.3857 96.4906C96.3381 96.9889 96.2471 97.4071 96.1127 97.7451C95.9827 98.0831 95.7942 98.3583 95.5472 98.5706C95.3046 98.7786 94.9861 98.9433 94.5918 99.0646Z" stroke="black" stroke-width="0.4" mask="url(#path-2-outside-1_1702_1106)"/>
<path d="M105.007 99.1946C104.378 99.1946 103.815 99.0451 103.317 98.7461C102.823 98.4428 102.433 98.0398 102.147 97.5371C101.861 97.0344 101.718 96.4819 101.718 95.8796C101.718 95.4289 101.8 95.0043 101.965 94.6056C102.129 94.2026 102.359 93.8494 102.654 93.5461C102.953 93.2384 103.302 92.9979 103.7 92.8246C104.099 92.6513 104.534 92.5646 105.007 92.5646C105.635 92.5646 106.196 92.7163 106.69 93.0196C107.189 93.3186 107.581 93.7194 107.867 94.2221C108.153 94.7248 108.296 95.2773 108.296 95.8796C108.296 96.3303 108.213 96.7571 108.049 97.1601C107.884 97.5588 107.654 97.9119 107.36 98.2196C107.065 98.5229 106.716 98.7613 106.313 98.9346C105.915 99.1079 105.479 99.1946 105.007 99.1946ZM105.007 98.4926C105.496 98.4926 105.93 98.3864 106.307 98.1741C106.684 97.9574 106.978 97.6541 107.191 97.2641C107.407 96.8741 107.516 96.4126 107.516 95.8796C107.516 95.3466 107.407 94.8851 107.191 94.4951C106.978 94.1008 106.684 93.7974 106.307 93.5851C105.93 93.3728 105.496 93.2666 105.007 93.2666C104.517 93.2666 104.084 93.3728 103.707 93.5851C103.33 93.7974 103.033 94.1008 102.816 94.4951C102.604 94.8851 102.498 95.3466 102.498 95.8796C102.498 96.4126 102.604 96.8741 102.816 97.2641C103.033 97.6541 103.33 97.9574 103.707 98.1741C104.084 98.3864 104.517 98.4926 105.007 98.4926Z" stroke="black" stroke-width="0.4" mask="url(#path-2-outside-1_1702_1106)"/>
<path d="M109.66 98.9996V92.7596H113.573V93.4356H110.388V98.9996H109.66Z" stroke="black" stroke-width="0.4" mask="url(#path-2-outside-1_1702_1106)"/>
<path d="M117.499 99.1946C116.871 99.1946 116.308 99.0451 115.809 98.7461C115.315 98.4428 114.925 98.0398 114.639 97.5371C114.353 97.0344 114.21 96.4819 114.21 95.8796C114.21 95.4289 114.293 95.0043 114.457 94.6056C114.622 94.2026 114.852 93.8494 115.146 93.5461C115.445 93.2384 115.794 92.9979 116.193 92.8246C116.592 92.6513 117.027 92.5646 117.499 92.5646C118.128 92.5646 118.689 92.7163 119.183 93.0196C119.681 93.3186 120.073 93.7194 120.359 94.2221C120.645 94.7248 120.788 95.2773 120.788 95.8796C120.788 96.3303 120.706 96.7571 120.541 97.1601C120.377 97.5588 120.147 97.9119 119.852 98.2196C119.558 98.5229 119.209 98.7613 118.806 98.9346C118.407 99.1079 117.972 99.1946 117.499 99.1946ZM117.499 98.4926C117.989 98.4926 118.422 98.3864 118.799 98.1741C119.176 97.9574 119.471 97.6541 119.683 97.2641C119.9 96.8741 120.008 96.4126 120.008 95.8796C120.008 95.3466 119.9 94.8851 119.683 94.4951C119.471 94.1008 119.176 93.7974 118.799 93.5851C118.422 93.3728 117.989 93.2666 117.499 93.2666C117.01 93.2666 116.576 93.3728 116.199 93.5851C115.822 93.7974 115.526 94.1008 115.309 94.4951C115.097 94.8851 114.99 95.3466 114.99 95.8796C114.99 96.4126 115.097 96.8741 115.309 97.2641C115.526 97.6541 115.822 97.9574 116.199 98.1741C116.576 98.3864 117.01 98.4926 117.499 98.4926Z" stroke="black" stroke-width="0.4" mask="url(#path-2-outside-1_1702_1106)"/>
<path d="M123.713 98.9996V93.4356H121.386V92.7596H126.768V93.4356H124.441V98.9996H123.713Z" stroke="black" stroke-width="0.4" mask="url(#path-2-outside-1_1702_1106)"/>
<path d="M127.948 98.9996V92.7596H128.676V97.8036L132.81 92.7596H133.395V98.9996H132.667V93.9036L128.494 98.9996H127.948Z" stroke="black" stroke-width="0.4" mask="url(#path-2-outside-1_1702_1106)"/>
<path d="M135.343 98.9996V92.7596H140.699V98.9996H139.971V93.4356H136.071V98.9996H135.343Z" stroke="black" stroke-width="0.4" mask="url(#path-2-outside-1_1702_1106)"/>
<path d="M145.341 99.1946C144.691 99.1946 144.119 99.0451 143.625 98.7461C143.135 98.4428 142.752 98.0398 142.474 97.5371C142.201 97.0344 142.065 96.4819 142.065 95.8796C142.065 95.4289 142.143 95.0043 142.299 94.6056C142.459 94.2026 142.682 93.8494 142.968 93.5461C143.259 93.2384 143.605 92.9979 144.008 92.8246C144.411 92.6513 144.856 92.5646 145.341 92.5646C146 92.5646 146.537 92.7011 146.953 92.9741C147.373 93.2428 147.716 93.5786 147.98 93.9816L147.863 94.1376V92.7596H148.591V98.9996H147.863V97.6216L147.98 97.7776C147.716 98.1806 147.373 98.5186 146.953 98.7916C146.537 99.0603 146 99.1946 145.341 99.1946ZM145.354 98.4926C145.844 98.4926 146.277 98.3864 146.654 98.1741C147.031 97.9574 147.326 97.6541 147.538 97.2641C147.755 96.8741 147.863 96.4126 147.863 95.8796C147.863 95.3466 147.755 94.8851 147.538 94.4951C147.326 94.1008 147.031 93.7974 146.654 93.5851C146.277 93.3728 145.844 93.2666 145.354 93.2666C144.864 93.2666 144.431 93.3728 144.054 93.5851C143.677 93.7974 143.38 94.1008 143.163 94.4951C142.951 94.8851 142.845 95.3466 142.845 95.8796C142.845 96.4126 142.951 96.8741 143.163 97.2641C143.38 97.6541 143.677 97.9574 144.054 98.1741C144.431 98.3864 144.864 98.4926 145.354 98.4926Z" stroke="black" stroke-width="0.4" mask="url(#path-2-outside-1_1702_1106)"/>
<path d="M29.1051 115V108.76H31.7571C32.4287 108.76 32.9791 108.898 33.4081 109.176C33.8414 109.449 34.0581 109.852 34.0581 110.385C34.0581 110.593 34.0126 110.79 33.9216 110.976C33.8306 111.162 33.6962 111.327 33.5186 111.47C33.3452 111.609 33.1307 111.715 32.8751 111.789L32.8621 111.633C33.3517 111.737 33.7157 111.929 33.9541 112.211C34.1967 112.493 34.3181 112.833 34.3181 113.232C34.3181 113.596 34.2206 113.91 34.0256 114.174C33.8306 114.438 33.5532 114.642 33.1936 114.785C32.8382 114.928 32.4201 115 31.9391 115H29.1051ZM29.8331 114.324H31.8351C32.3897 114.324 32.8209 114.235 33.1286 114.057C33.4362 113.875 33.5901 113.6 33.5901 113.232C33.5901 112.859 33.4362 112.584 33.1286 112.406C32.8209 112.228 32.3897 112.14 31.8351 112.14H29.6641V111.464H31.6921C32.2121 111.464 32.6151 111.386 32.9011 111.23C33.1871 111.074 33.3301 110.814 33.3301 110.45C33.3301 110.086 33.1892 109.826 32.9076 109.67C32.6259 109.514 32.2207 109.436 31.6921 109.436H29.8331V114.324Z" stroke="black" stroke-width="0.4" mask="url(#path-2-outside-1_1702_1106)"/>
<path d="M39.046 115V108.76H41.698C42.3697 108.76 42.92 108.898 43.349 109.176C43.7823 109.449 43.999 109.852 43.999 110.385C43.999 110.593 43.9535 110.79 43.8625 110.976C43.7715 111.162 43.6372 111.327 43.4595 111.47C43.2862 111.609 43.0717 111.715 42.816 111.789L42.803 111.633C43.2927 111.737 43.6567 111.929 43.895 112.211C44.1377 112.493 44.259 112.833 44.259 113.232C44.259 113.596 44.1615 113.91 43.9665 114.174C43.7715 114.438 43.4942 114.642 43.1345 114.785C42.7792 114.928 42.361 115 41.88 115H39.046ZM39.774 114.324H41.776C42.3307 114.324 42.7618 114.235 43.0695 114.057C43.3772 113.875 43.531 113.6 43.531 113.232C43.531 112.859 43.3772 112.584 43.0695 112.406C42.7618 112.228 42.3307 112.14 41.776 112.14H39.605V111.464H41.633C42.153 111.464 42.556 111.386 42.842 111.23C43.128 111.074 43.271 110.814 43.271 110.45C43.271 110.086 43.1302 109.826 42.8485 109.67C42.5668 109.514 42.1617 109.436 41.633 109.436H39.774V114.324Z" stroke="black" stroke-width="0.4" mask="url(#path-2-outside-1_1702_1106)"/>
<path d="M48.6 115.195C47.95 115.195 47.3758 115.058 46.8775 114.785C46.3791 114.508 45.9891 114.122 45.7075 113.628C45.4258 113.134 45.285 112.56 45.285 111.906C45.285 111.429 45.3651 110.987 45.5255 110.58C45.6858 110.172 45.9111 109.819 46.2015 109.52C46.4918 109.217 46.8298 108.983 47.2155 108.818C47.6055 108.649 48.028 108.565 48.483 108.565C48.964 108.565 49.393 108.651 49.77 108.825C50.1513 108.994 50.4676 109.232 50.719 109.54C50.9746 109.847 51.161 110.207 51.278 110.619C51.395 111.03 51.4296 111.477 51.382 111.958H46.091C46.065 112.465 46.1538 112.909 46.3575 113.29C46.5611 113.667 46.8623 113.962 47.261 114.174C47.6596 114.386 48.1363 114.493 48.691 114.493C49.0246 114.493 49.3561 114.434 49.6855 114.317C50.0191 114.196 50.303 114.025 50.537 113.804L50.9595 114.415C50.7471 114.592 50.5088 114.74 50.2445 114.857C49.9801 114.974 49.7071 115.058 49.4255 115.11C49.1481 115.166 48.873 115.195 48.6 115.195ZM46.117 111.282H50.602C50.576 110.645 50.3853 110.151 50.03 109.8C49.6746 109.444 49.159 109.267 48.483 109.267C47.8286 109.267 47.2891 109.444 46.8645 109.8C46.4398 110.151 46.1906 110.645 46.117 111.282Z" stroke="black" stroke-width="0.4" mask="url(#path-2-outside-1_1702_1106)"/>
<path d="M57.0341 115L54.8371 111.633L56.6701 108.76H57.4761L55.6431 111.607L57.9441 115H57.0341ZM52.7701 115V108.76H53.4981V111.334H55.3441V112.01H53.4981V115H52.7701Z" stroke="black" stroke-width="0.4" mask="url(#path-2-outside-1_1702_1106)"/>
<path d="M60.7352 115V109.436H58.4082V108.76H63.7902V109.436H61.4632V115H60.7352Z" stroke="black" stroke-width="0.4" mask="url(#path-2-outside-1_1702_1106)"/>
<path d="M67.6748 115.195C67.0465 115.195 66.4832 115.045 65.9848 114.746C65.4908 114.443 65.1008 114.04 64.8148 113.537C64.5288 113.034 64.3858 112.482 64.3858 111.88C64.3858 111.429 64.4682 111.004 64.6328 110.606C64.7975 110.203 65.0272 109.849 65.3218 109.546C65.6208 109.238 65.9697 108.998 66.3683 108.825C66.767 108.651 67.2025 108.565 67.6748 108.565C68.3032 108.565 68.8643 108.716 69.3583 109.02C69.8567 109.319 70.2488 109.719 70.5348 110.222C70.8208 110.725 70.9638 111.277 70.9638 111.88C70.9638 112.33 70.8815 112.757 70.7168 113.16C70.5522 113.559 70.3225 113.912 70.0278 114.22C69.7332 114.523 69.3843 114.761 68.9813 114.935C68.5827 115.108 68.1472 115.195 67.6748 115.195ZM67.6748 114.493C68.1645 114.493 68.5978 114.386 68.9748 114.174C69.3518 113.957 69.6465 113.654 69.8588 113.264C70.0755 112.874 70.1838 112.413 70.1838 111.88C70.1838 111.347 70.0755 110.885 69.8588 110.495C69.6465 110.101 69.3518 109.797 68.9748 109.585C68.5978 109.373 68.1645 109.267 67.6748 109.267C67.1852 109.267 66.7518 109.373 66.3748 109.585C65.9978 109.797 65.701 110.101 65.4843 110.495C65.272 110.885 65.1658 111.347 65.1658 111.88C65.1658 112.413 65.272 112.874 65.4843 113.264C65.701 113.654 65.9978 113.957 66.3748 114.174C66.7518 114.386 67.1852 114.493 67.6748 114.493Z" stroke="black" stroke-width="0.4" mask="url(#path-2-outside-1_1702_1106)"/>
<path d="M72.328 117.73V108.76H73.056V109.813C73.329 109.453 73.6714 109.156 74.083 108.922C74.4947 108.684 75.032 108.565 75.695 108.565C76.3234 108.565 76.8737 108.716 77.346 109.02C77.8227 109.319 78.1932 109.719 78.4575 110.222C78.7219 110.725 78.854 111.277 78.854 111.88C78.854 112.33 78.7782 112.757 78.6265 113.16C78.4749 113.559 78.2582 113.912 77.9765 114.22C77.6992 114.523 77.3677 114.761 76.982 114.935C76.5964 115.108 76.1674 115.195 75.695 115.195C75.0797 115.195 74.5532 115.075 74.1155 114.837C73.6822 114.599 73.329 114.289 73.056 113.908V117.73H72.328ZM75.565 114.493C76.0547 114.493 76.488 114.386 76.865 114.174C77.242 113.957 77.5367 113.654 77.749 113.264C77.9657 112.874 78.074 112.413 78.074 111.88C78.074 111.347 77.9657 110.885 77.749 110.495C77.5367 110.101 77.242 109.797 76.865 109.585C76.488 109.373 76.0547 109.267 75.565 109.267C75.0754 109.267 74.642 109.373 74.265 109.585C73.888 109.797 73.5912 110.101 73.3745 110.495C73.1622 110.885 73.056 111.347 73.056 111.88C73.056 112.413 73.1622 112.874 73.3745 113.264C73.5912 113.654 73.888 113.957 74.265 114.174C74.642 114.386 75.0754 114.493 75.565 114.493Z" stroke="black" stroke-width="0.4" mask="url(#path-2-outside-1_1702_1106)"/>
<path d="M83.0119 115.195C82.3619 115.195 81.7877 115.058 81.2894 114.785C80.7911 114.508 80.4011 114.122 80.1194 113.628C79.8377 113.134 79.6969 112.56 79.6969 111.906C79.6969 111.429 79.7771 110.987 79.9374 110.58C80.0977 110.172 80.3231 109.819 80.6134 109.52C80.9037 109.217 81.2417 108.983 81.6274 108.818C82.0174 108.649 82.4399 108.565 82.8949 108.565C83.3759 108.565 83.8049 108.651 84.1819 108.825C84.5632 108.994 84.8796 109.232 85.1309 109.54C85.3866 109.847 85.5729 110.207 85.6899 110.619C85.8069 111.03 85.8416 111.477 85.7939 111.958H80.5029C80.4769 112.465 80.5657 112.909 80.7694 113.29C80.9731 113.667 81.2742 113.962 81.6729 114.174C82.0716 114.386 82.5482 114.493 83.1029 114.493C83.4366 114.493 83.7681 114.434 84.0974 114.317C84.4311 114.196 84.7149 114.025 84.9489 113.804L85.3714 114.415C85.1591 114.592 84.9207 114.74 84.6564 114.857C84.3921 114.974 84.1191 115.058 83.8374 115.11C83.5601 115.166 83.2849 115.195 83.0119 115.195ZM80.5289 111.282H85.0139C84.9879 110.645 84.7972 110.151 84.4419 109.8C84.0866 109.444 83.5709 109.267 82.8949 109.267C82.2406 109.267 81.7011 109.444 81.2764 109.8C80.8517 110.151 80.6026 110.645 80.5289 111.282Z" stroke="black" stroke-width="0.4" mask="url(#path-2-outside-1_1702_1106)"/>
<path d="M31.3951 40.2246C30.6701 40.2246 30.0201 40.0521 29.4451 39.7071C28.8751 39.3571 28.4251 38.8921 28.0951 38.3121C27.7651 37.7321 27.6001 37.0946 27.6001 36.3996C27.6001 35.8796 27.6951 35.3896 27.8851 34.9296C28.0751 34.4646 28.3401 34.0571 28.6801 33.7071C29.0251 33.3521 29.4276 33.0746 29.8876 32.8746C30.3476 32.6746 30.8501 32.5746 31.3951 32.5746C32.1201 32.5746 32.7676 32.7496 33.3376 33.0996C33.9126 33.4446 34.3651 33.9071 34.6951 34.4871C35.0251 35.0671 35.1901 35.7046 35.1901 36.3996C35.1901 36.9196 35.0951 37.4121 34.9051 37.8771C34.7151 38.3371 34.4501 38.7446 34.1101 39.0996C33.7701 39.4496 33.3676 39.7246 32.9026 39.9246C32.4426 40.1246 31.9401 40.2246 31.3951 40.2246ZM31.3951 39.4146C31.9601 39.4146 32.4601 39.2921 32.8951 39.0471C33.3301 38.7971 33.6701 38.4471 33.9151 37.9971C34.1651 37.5471 34.2901 37.0146 34.2901 36.3996C34.2901 35.7846 34.1651 35.2521 33.9151 34.8021C33.6701 34.3471 33.3301 33.9971 32.8951 33.7521C32.4601 33.5071 31.9601 33.3846 31.3951 33.3846C30.8301 33.3846 30.3301 33.5071 29.8951 33.7521C29.4601 33.9971 29.1176 34.3471 28.8676 34.8021C28.6226 35.2521 28.5001 35.7846 28.5001 36.3996C28.5001 37.0146 28.6226 37.5471 28.8676 37.9971C29.1176 38.4471 29.4601 38.7971 29.8951 39.0471C30.3301 39.2921 30.8301 39.4146 31.3951 39.4146Z" stroke="black" stroke-width="0.4" mask="url(#path-2-outside-1_1702_1106)"/>
<path d="M38.5641 39.9996V33.5796H35.8791V32.7996H42.0891V33.5796H39.4041V39.9996H38.5641Z" stroke="black" stroke-width="0.4" mask="url(#path-2-outside-1_1702_1106)"/>
<path d="M49.2379 39.9996V30.3396L46.1779 31.4946L45.9529 30.8346L50.0029 29.2746H50.0779V39.9996H49.2379Z" stroke="black" stroke-width="0.4" mask="url(#path-2-outside-1_1702_1106)"/>
<path d="M56.6363 40.2246C56.0013 40.2246 55.4263 40.0821 54.9113 39.7971C54.4013 39.5121 53.9638 39.1171 53.5988 38.6121C53.2388 38.1071 52.9613 37.5246 52.7663 36.8646C52.5763 36.2046 52.4813 35.4996 52.4813 34.7496C52.4813 33.9946 52.5763 33.2871 52.7663 32.6271C52.9613 31.9671 53.2388 31.3871 53.5988 30.8871C53.9638 30.3821 54.4013 29.9871 54.9113 29.7021C55.4263 29.4171 56.0013 29.2746 56.6363 29.2746C57.2663 29.2746 57.8363 29.4171 58.3463 29.7021C58.8563 29.9871 59.2938 30.3821 59.6588 30.8871C60.0238 31.3871 60.3038 31.9671 60.4988 32.6271C60.6938 33.2871 60.7913 33.9946 60.7913 34.7496C60.7913 35.4996 60.6938 36.2046 60.4988 36.8646C60.3038 37.5246 60.0238 38.1071 59.6588 38.6121C59.2938 39.1171 58.8563 39.5121 58.3463 39.7971C57.8363 40.0821 57.2663 40.2246 56.6363 40.2246ZM56.6363 39.3846C57.1163 39.3846 57.5538 39.2771 57.9488 39.0621C58.3438 38.8421 58.6838 38.5296 58.9688 38.1246C59.2538 37.7196 59.4738 37.2321 59.6288 36.6621C59.7838 36.0921 59.8613 35.4546 59.8613 34.7496C59.8613 33.8096 59.7263 32.9921 59.4563 32.2971C59.1863 31.6021 58.8088 31.0646 58.3238 30.6846C57.8388 30.3046 57.2763 30.1146 56.6363 30.1146C56.1563 30.1146 55.7188 30.2246 55.3238 30.4446C54.9288 30.6596 54.5888 30.9696 54.3038 31.3746C54.0188 31.7796 53.7988 32.2671 53.6438 32.8371C53.4888 33.4071 53.4113 34.0446 53.4113 34.7496C53.4113 35.6896 53.5463 36.5071 53.8163 37.2021C54.0863 37.8971 54.4638 38.4346 54.9488 38.8146C55.4338 39.1946 55.9963 39.3846 56.6363 39.3846Z" stroke="black" stroke-width="0.4" mask="url(#path-2-outside-1_1702_1106)"/>
<path d="M66.4437 40.2246C65.8087 40.2246 65.2337 40.0821 64.7187 39.7971C64.2087 39.5121 63.7712 39.1171 63.4062 38.6121C63.0462 38.1071 62.7687 37.5246 62.5737 36.8646C62.3837 36.2046 62.2887 35.4996 62.2887 34.7496C62.2887 33.9946 62.3837 33.2871 62.5737 32.6271C62.7687 31.9671 63.0462 31.3871 63.4062 30.8871C63.7712 30.3821 64.2087 29.9871 64.7187 29.7021C65.2337 29.4171 65.8087 29.2746 66.4437 29.2746C67.0737 29.2746 67.6437 29.4171 68.1537 29.7021C68.6637 29.9871 69.1012 30.3821 69.4662 30.8871C69.8312 31.3871 70.1112 31.9671 70.3062 32.6271C70.5012 33.2871 70.5987 33.9946 70.5987 34.7496C70.5987 35.4996 70.5012 36.2046 70.3062 36.8646C70.1112 37.5246 69.8312 38.1071 69.4662 38.6121C69.1012 39.1171 68.6637 39.5121 68.1537 39.7971C67.6437 40.0821 67.0737 40.2246 66.4437 40.2246ZM66.4437 39.3846C66.9237 39.3846 67.3612 39.2771 67.7562 39.0621C68.1512 38.8421 68.4912 38.5296 68.7762 38.1246C69.0612 37.7196 69.2812 37.2321 69.4362 36.6621C69.5912 36.0921 69.6687 35.4546 69.6687 34.7496C69.6687 33.8096 69.5337 32.9921 69.2637 32.2971C68.9937 31.6021 68.6162 31.0646 68.1312 30.6846C67.6462 30.3046 67.0837 30.1146 66.4437 30.1146C65.9637 30.1146 65.5262 30.2246 65.1312 30.4446C64.7362 30.6596 64.3962 30.9696 64.1112 31.3746C63.8262 31.7796 63.6062 32.2671 63.4512 32.8371C63.2962 33.4071 63.2187 34.0446 63.2187 34.7496C63.2187 35.6896 63.3537 36.5071 63.6237 37.2021C63.8937 37.8971 64.2712 38.4346 64.7562 38.8146C65.2412 39.1946 65.8037 39.3846 66.4437 39.3846Z" stroke="black" stroke-width="0.4" mask="url(#path-2-outside-1_1702_1106)"/>
<path d="M76.2512 40.2246C75.6162 40.2246 75.0412 40.0821 74.5262 39.7971C74.0162 39.5121 73.5787 39.1171 73.2137 38.6121C72.8537 38.1071 72.5762 37.5246 72.3812 36.8646C72.1912 36.2046 72.0962 35.4996 72.0962 34.7496C72.0962 33.9946 72.1912 33.2871 72.3812 32.6271C72.5762 31.9671 72.8537 31.3871 73.2137 30.8871C73.5787 30.3821 74.0162 29.9871 74.5262 29.7021C75.0412 29.4171 75.6162 29.2746 76.2512 29.2746C76.8812 29.2746 77.4512 29.4171 77.9612 29.7021C78.4712 29.9871 78.9087 30.3821 79.2737 30.8871C79.6387 31.3871 79.9187 31.9671 80.1137 32.6271C80.3087 33.2871 80.4062 33.9946 80.4062 34.7496C80.4062 35.4996 80.3087 36.2046 80.1137 36.8646C79.9187 37.5246 79.6387 38.1071 79.2737 38.6121C78.9087 39.1171 78.4712 39.5121 77.9612 39.7971C77.4512 40.0821 76.8812 40.2246 76.2512 40.2246ZM76.2512 39.3846C76.7312 39.3846 77.1687 39.2771 77.5637 39.0621C77.9587 38.8421 78.2987 38.5296 78.5837 38.1246C78.8687 37.7196 79.0887 37.2321 79.2437 36.6621C79.3987 36.0921 79.4762 35.4546 79.4762 34.7496C79.4762 33.8096 79.3412 32.9921 79.0712 32.2971C78.8012 31.6021 78.4237 31.0646 77.9387 30.6846C77.4537 30.3046 76.8912 30.1146 76.2512 30.1146C75.7712 30.1146 75.3337 30.2246 74.9387 30.4446C74.5437 30.6596 74.2037 30.9696 73.9187 31.3746C73.6337 31.7796 73.4137 32.2671 73.2587 32.8371C73.1037 33.4071 73.0262 34.0446 73.0262 34.7496C73.0262 35.6896 73.1612 36.5071 73.4312 37.2021C73.7012 37.8971 74.0787 38.4346 74.5637 38.8146C75.0487 39.1946 75.6112 39.3846 76.2512 39.3846Z" stroke="black" stroke-width="0.4" mask="url(#path-2-outside-1_1702_1106)"/>
<path d="M85.8751 43.1496V32.7996H86.7151V34.0146C87.0301 33.5996 87.4251 33.2571 87.9001 32.9871C88.3751 32.7121 88.9951 32.5746 89.7601 32.5746C90.4851 32.5746 91.1201 32.7496 91.6651 33.0996C92.2151 33.4446 92.6426 33.9071 92.9476 34.4871C93.2526 35.0671 93.4051 35.7046 93.4051 36.3996C93.4051 36.9196 93.3176 37.4121 93.1426 37.8771C92.9676 38.3371 92.7176 38.7446 92.3926 39.0996C92.0726 39.4496 91.6901 39.7246 91.2451 39.9246C90.8001 40.1246 90.3051 40.2246 89.7601 40.2246C89.0501 40.2246 88.4426 40.0871 87.9376 39.8121C87.4376 39.5371 87.0301 39.1796 86.7151 38.7396V43.1496H85.8751ZM89.6101 39.4146C90.1751 39.4146 90.6751 39.2921 91.1101 39.0471C91.5451 38.7971 91.8851 38.4471 92.1301 37.9971C92.3801 37.5471 92.5051 37.0146 92.5051 36.3996C92.5051 35.7846 92.3801 35.2521 92.1301 34.8021C91.8851 34.3471 91.5451 33.9971 91.1101 33.7521C90.6751 33.5071 90.1751 33.3846 89.6101 33.3846C89.0451 33.3846 88.5451 33.5071 88.1101 33.7521C87.6751 33.9971 87.3326 34.3471 87.0826 34.8021C86.8376 35.2521 86.7151 35.7846 86.7151 36.3996C86.7151 37.0146 86.8376 37.5471 87.0826 37.9971C87.3326 38.4471 87.6751 38.7971 88.1101 39.0471C88.5451 39.2921 89.0451 39.4146 89.6101 39.4146Z" stroke="black" stroke-width="0.4" mask="url(#path-2-outside-1_1702_1106)"/>
<path d="M95.0411 43.3746C94.8561 43.3746 94.6686 43.3496 94.4786 43.2996C94.2936 43.2496 94.0911 43.1546 93.8711 43.0146L94.0961 42.2496C94.2461 42.3596 94.4061 42.4396 94.5761 42.4896C94.7511 42.5396 94.9011 42.5646 95.0261 42.5646C95.4461 42.5646 95.7611 42.4571 95.9711 42.2421C96.1811 42.0321 96.3611 41.7146 96.5111 41.2896L96.8861 40.2096L94.0061 32.7996H94.9511L97.3661 39.0696L99.7211 32.7996H100.621L97.3811 41.3796C97.1761 41.9196 96.9586 42.3321 96.7286 42.6171C96.5036 42.9071 96.2536 43.1046 95.9786 43.2096C95.7036 43.3196 95.3911 43.3746 95.0411 43.3746Z" stroke="black" stroke-width="0.4" mask="url(#path-2-outside-1_1702_1106)"/>
<path d="M105.356 40.2246C104.751 40.2246 104.209 40.1246 103.729 39.9246C103.254 39.7196 102.849 39.4196 102.514 39.0246C102.184 38.6296 101.931 38.1446 101.756 37.5696C101.586 36.9896 101.501 36.3246 101.501 35.5746C101.501 34.7546 101.554 34.0171 101.659 33.3621C101.769 32.7071 101.946 32.1371 102.191 31.6521C102.441 31.1621 102.776 30.7596 103.196 30.4446C103.616 30.1246 104.136 29.8946 104.756 29.7546L108.206 28.9746L108.386 29.8146L105.041 30.5646C104.361 30.7196 103.834 30.9721 103.459 31.3221C103.084 31.6671 102.811 32.1021 102.641 32.6271C102.476 33.1471 102.366 33.7446 102.311 34.4196C102.626 33.8646 103.044 33.4196 103.564 33.0846C104.089 32.7446 104.721 32.5746 105.461 32.5746C106.166 32.5746 106.786 32.7496 107.321 33.0996C107.856 33.4446 108.274 33.9071 108.574 34.4871C108.879 35.0671 109.031 35.7046 109.031 36.3996C109.031 36.9196 108.944 37.4121 108.769 37.8771C108.594 38.3371 108.341 38.7446 108.011 39.0996C107.686 39.4496 107.299 39.7246 106.849 39.9246C106.404 40.1246 105.906 40.2246 105.356 40.2246ZM105.311 39.4146C105.861 39.4146 106.349 39.2921 106.774 39.0471C107.199 38.7971 107.531 38.4471 107.771 37.9971C108.011 37.5471 108.131 37.0146 108.131 36.3996C108.131 35.7846 108.011 35.2521 107.771 34.8021C107.531 34.3471 107.199 33.9971 106.774 33.7521C106.349 33.5071 105.861 33.3846 105.311 33.3846C104.761 33.3846 104.274 33.5071 103.849 33.7521C103.424 33.9971 103.091 34.3471 102.851 34.8021C102.611 35.2521 102.491 35.7846 102.491 36.3996C102.491 37.0146 102.611 37.5471 102.851 37.9971C103.091 38.4471 103.424 38.7971 103.849 39.0471C104.274 39.2921 104.761 39.4146 105.311 39.4146Z" stroke="black" stroke-width="0.4" mask="url(#path-2-outside-1_1702_1106)"/>
</svg>
