<svg width="345" height="418" viewBox="0 0 345 418" fill="none" xmlns="http://www.w3.org/2000/svg">
<path fill-rule="evenodd" clip-rule="evenodd" d="M110.938 2.91784C108.858 -0.555207 104.006 -1.01432 101.312 2.00696L5.80662 109.103C4.05491 111.068 3.78784 113.944 5.14798 116.198L163.562 378.628C165.583 381.975 170.214 382.526 172.964 379.747L271.624 280.033C273.551 278.085 273.914 275.08 272.506 272.73L110.938 2.91784Z" fill="#718CEB"/>
<path d="M160.424 37.5813C163.161 36.3401 166.394 37.3151 167.989 39.8624L340.985 316.266C343.036 319.544 341.498 323.877 337.839 325.127L171.214 382.054C168.543 382.967 165.597 381.894 164.138 379.477L4.80002 115.517C2.94367 112.442 4.18721 108.436 7.45861 106.952L160.424 37.5813Z" fill="#2051FF" fill-opacity="0.97"/>
<g style="mix-blend-mode:plus-darker">
<path d="M132.664 49.7047C135.424 48.4463 138.69 49.4464 140.272 52.0349L273.424 269.868C274.844 272.19 274.522 275.178 272.64 277.145L173.431 380.825C170.695 383.683 165.991 383.158 163.953 379.767L4.96337 115.262C3.11757 112.191 4.35696 108.197 7.61702 106.711L132.664 49.7047Z" fill="#0000FF"/>
</g>
</svg>
