<svg width="86" height="115" viewBox="0 0 86 115" fill="none" xmlns="http://www.w3.org/2000/svg">
<path d="M32.9394 25.9948C34.7079 11.418 37.3125 5.13677 42.96 1.82776C48.81 -1.59993 57.6828 -0.0389438 61.6149 5.109C65.0529 9.61119 64.566 17.2321 59.7776 33.8648C59.476 34.9136 60.7228 33.2607 62.5491 30.1933C67.0432 22.643 71.5447 19.1993 76.9162 19.1993C89.049 19.1993 88.5585 37.5555 75.9141 56.6825C73.7991 59.8825 71.2449 63.3422 70.2392 64.3708C68.4679 66.1819 68.5871 66.2418 73.9513 66.2418C79.7271 66.2418 84.1277 67.6135 85.3103 69.7838C86.4664 71.9029 86.1134 77.3887 84.6667 79.7975C81.2801 85.4362 64.8017 87.4462 55.5576 83.3493C52.9044 82.1732 50.6308 81.2109 50.5052 81.2109C50.3796 81.2099 50.276 88.6672 50.276 97.7817V114.354H43.8584H37.4409V97.1584C37.4409 87.7007 37.131 80.1482 36.7533 80.3749C30.2 84.3094 28.1116 84.8995 19.5634 85.2395C11.4314 85.5623 9.93064 85.325 6.27813 83.1397C1.42188 80.2327 -0.698667 76.4307 0.202541 72.245C1.02124 68.4421 5.4576 66.2418 12.3088 66.2418H17.4887L14.5128 62.767C7.67165 54.7784 4.11175 37.9382 7.64599 30.2853C10.2781 24.5835 17.3924 21.8304 22.1451 24.6733C23.2461 25.333 25.6527 27.8583 27.4927 30.2863C29.3327 32.7154 31.1104 34.3919 31.4441 34.0134C31.7778 33.6349 32.4508 30.0265 32.9394 25.9948Z" fill="#2051FF"/>
</svg>
