<svg width="65" height="115" viewBox="0 0 65 115" fill="none" xmlns="http://www.w3.org/2000/svg">
<path d="M21.6616 12.5937C21.8678 11.8706 24.0946 8.74062 26.6083 5.63845C29.122 2.53735 31.5302 0 31.9592 0C33.3142 0 40.1411 7.73299 41.5062 10.8127C42.6988 13.5041 43.0747 13.6753 45.7946 12.7649C47.4347 12.2162 49.7678 11.7668 50.9797 11.7668H53.1836L52.6509 21.6617C52.3584 27.1034 51.5673 33.3708 50.8935 35.5873C49.4001 40.5015 45.7103 45.2318 41.9581 47.0461L39.163 48.3971L39.2106 66.1843L39.2583 83.9725L41.9957 76.0823C43.5019 71.7425 45.9111 66.196 47.3494 63.756C50.5736 58.2876 57.197 51.066 61.205 48.6474L64.2054 46.8375L63.5976 59.2643C62.305 85.6605 58.97 100.475 52.4153 108.927L48.5402 113.924L33.3811 114.263C16.4545 114.64 14.5294 114.093 10.361 107.716C6.70142 102.118 4.34723 94.8793 2.53851 83.6708C0.669289 72.0891 -0.725097 48.6014 0.407987 47.7842C1.57132 46.9444 10.1978 54.6431 13.9051 59.8302C17.6894 65.1242 20.3066 70.6717 22.7717 78.6239L24.4292 83.9725L24.4622 66.1843L24.4952 48.3971L21.7404 47.0653C18.0084 45.2617 13.7731 39.4115 12.6382 34.4919C12.1239 32.2658 11.4271 26.2433 11.0889 21.1065L10.4737 11.7668H12.6776C13.8895 11.7668 16.3225 12.2493 18.0835 12.8387C20.4799 13.6399 21.3801 13.5789 21.6616 12.5937Z" fill="#2051FF"/>
</svg>
