<svg width="67" height="115" viewBox="0 0 67 115" fill="none" xmlns="http://www.w3.org/2000/svg">
<path d="M23.0504 8.82404C23.0504 6.65223 23.6845 3.81355 24.4589 2.51577C27.0779 -1.87457 29.563 -0.06278 31.4564 7.61554L32.5682 12.1215L34.6806 6.13816C37.7365 -2.51826 41.3062 -1.94785 42.579 7.39994C43.3625 13.1507 44.2617 13.7347 45.7109 9.4336C47.2452 4.87971 49.2128 2.27892 51.1244 2.27892C53.9767 2.27892 54.8569 5.05812 54.8081 13.9089C54.7267 28.3915 49.6579 37.9719 40.6675 40.629L36.6201 41.8248V50.8701V59.9141L38.509 57.0944C41.2402 53.0195 44.9329 51.1313 50.1736 51.1313C58.5832 51.1313 64.4634 56.1726 66.5224 65.1487C68.3796 73.2465 64.6389 84.1724 58.4484 88.7305C48.965 95.7132 43.6728 91.4939 51.0945 82.8672C53.8998 79.6068 54.7131 77.8524 54.7131 75.0614C54.7131 73.0808 54.0735 70.7104 53.2919 69.7917C51.5939 67.7994 51.754 67.8165 48.9043 69.3405C45.9407 70.926 44.2671 76.9041 42.0571 93.8049C39.5865 112.703 38.794 114.424 32.6008 114.351C28.652 114.306 27.048 110.078 24.9302 94.1404C22.6415 76.9136 21.7703 73.325 19.183 70.4714C16.5324 67.5488 13.3164 68.39 12.4497 72.2323C11.5288 76.3147 11.992 77.7165 15.9046 82.6994C21.8816 90.3119 19.6281 94.63 11.7984 90.5647C5.17362 87.1238 2.07972 82.6441 0.466729 74.1555C-1.93692 61.5113 5.18538 51.1313 16.2655 51.1313C21.5052 51.1313 25.8132 53.2362 28.3643 57.0435L30.3627 60.0266L30.0994 50.561L29.8353 41.0952L25.7643 40.2999C17.7591 38.7334 12.4823 28.3342 12.0806 13.3355C11.9856 9.77883 12.2 6.3135 12.5574 5.63594C13.9605 2.96924 16.6663 4.45285 19.0274 9.18197C21.7522 14.6396 23.0504 14.5238 23.0504 8.82404Z" fill="#2051FF"/>
</svg>
