<svg width="66" height="109" viewBox="0 0 66 109" fill="none" xmlns="http://www.w3.org/2000/svg">
<path d="M2.04931 26.8473C2.54302 10.8357 4.45442 3.24747 8.45833 1.40682C10.5076 0.465213 13.5903 0.874815 14.883 2.26116C15.2305 2.63461 16.1204 4.29969 16.8615 5.96054L18.2084 8.98221L19.456 5.97015C22.2233 -0.712589 28.7261 -0.718998 31.4585 5.95736L32.8247 9.29606L34.3849 5.80631C37.2957 -0.709388 43.6605 -0.848781 45.9516 5.55201L47.1413 8.8737L48.8541 5.6148C51.159 1.22809 54.7143 -0.305083 57.5662 1.85795C62.073 5.27539 62.8968 9.05035 63.2691 27.9793C63.476 38.4987 63.2186 47.2678 62.6293 49.7905C60.5919 58.5149 53.4887 65.2892 44.7987 66.7968L40.4528 67.5512V72.7508V77.9493H48.5324C62.1273 77.9493 68.6062 83.5659 65.0279 92.2489C63.7812 95.2748 62.6596 96.2218 58.7109 97.5783C56.0704 98.4859 50.8823 99.2285 47.1809 99.2285H40.4528V107.208V109H32.6381H24.8233V107.208V99.2285L18.1578 99.2221C6.51107 99.2125 0 95.4684 0 88.7804C0 81.5263 5.87945 77.9493 17.8048 77.9493H24.8233V72.7656V67.5821L20.9242 66.8596C15.0907 65.7808 9.39056 62.0494 6.41085 57.3595C2.61747 51.3917 1.52802 43.7642 2.04931 26.8473Z" fill="#2051FF"/>
</svg>
